%TF.GenerationSoftware,KiCad,Pcbnew,7.0.10*%
%TF.CreationDate,2024-02-05T14:27:58-07:00*%
%TF.ProjectId,pcbdraft-1,70636264-7261-4667-942d-312e6b696361,rev?*%
%TF.SameCoordinates,Original*%
%TF.FileFunction,Copper,L1,Top*%
%TF.FilePolarity,Positive*%
%FSLAX46Y46*%
G04 Gerber Fmt 4.6, Leading zero omitted, Abs format (unit mm)*
G04 Created by KiCad (PCBNEW 7.0.10) date 2024-02-05 14:27:58*
%MOMM*%
%LPD*%
G01*
G04 APERTURE LIST*
%ADD10C,0.300000*%
%TA.AperFunction,NonConductor*%
%ADD11C,0.300000*%
%TD*%
%TA.AperFunction,ComponentPad*%
%ADD12R,1.700000X1.700000*%
%TD*%
%TA.AperFunction,ComponentPad*%
%ADD13O,1.700000X1.700000*%
%TD*%
%TA.AperFunction,WasherPad*%
%ADD14C,3.650000*%
%TD*%
%TA.AperFunction,ComponentPad*%
%ADD15R,1.500000X1.500000*%
%TD*%
%TA.AperFunction,ComponentPad*%
%ADD16C,1.500000*%
%TD*%
%TA.AperFunction,ComponentPad*%
%ADD17R,1.600000X1.600000*%
%TD*%
%TA.AperFunction,ComponentPad*%
%ADD18C,1.600000*%
%TD*%
%TA.AperFunction,Conductor*%
%ADD19C,0.250000*%
%TD*%
G04 APERTURE END LIST*
D10*
D11*
X181759653Y-175385257D02*
X181759653Y-172385257D01*
X181759653Y-172385257D02*
X182473939Y-172385257D01*
X182473939Y-172385257D02*
X182902510Y-172528114D01*
X182902510Y-172528114D02*
X183188225Y-172813828D01*
X183188225Y-172813828D02*
X183331082Y-173099542D01*
X183331082Y-173099542D02*
X183473939Y-173670971D01*
X183473939Y-173670971D02*
X183473939Y-174099542D01*
X183473939Y-174099542D02*
X183331082Y-174670971D01*
X183331082Y-174670971D02*
X183188225Y-174956685D01*
X183188225Y-174956685D02*
X182902510Y-175242400D01*
X182902510Y-175242400D02*
X182473939Y-175385257D01*
X182473939Y-175385257D02*
X181759653Y-175385257D01*
X185902510Y-175242400D02*
X185616796Y-175385257D01*
X185616796Y-175385257D02*
X185045368Y-175385257D01*
X185045368Y-175385257D02*
X184759653Y-175242400D01*
X184759653Y-175242400D02*
X184616796Y-174956685D01*
X184616796Y-174956685D02*
X184616796Y-173813828D01*
X184616796Y-173813828D02*
X184759653Y-173528114D01*
X184759653Y-173528114D02*
X185045368Y-173385257D01*
X185045368Y-173385257D02*
X185616796Y-173385257D01*
X185616796Y-173385257D02*
X185902510Y-173528114D01*
X185902510Y-173528114D02*
X186045368Y-173813828D01*
X186045368Y-173813828D02*
X186045368Y-174099542D01*
X186045368Y-174099542D02*
X184616796Y-174385257D01*
X187188225Y-175242400D02*
X187473939Y-175385257D01*
X187473939Y-175385257D02*
X188045368Y-175385257D01*
X188045368Y-175385257D02*
X188331082Y-175242400D01*
X188331082Y-175242400D02*
X188473939Y-174956685D01*
X188473939Y-174956685D02*
X188473939Y-174813828D01*
X188473939Y-174813828D02*
X188331082Y-174528114D01*
X188331082Y-174528114D02*
X188045368Y-174385257D01*
X188045368Y-174385257D02*
X187616797Y-174385257D01*
X187616797Y-174385257D02*
X187331082Y-174242400D01*
X187331082Y-174242400D02*
X187188225Y-173956685D01*
X187188225Y-173956685D02*
X187188225Y-173813828D01*
X187188225Y-173813828D02*
X187331082Y-173528114D01*
X187331082Y-173528114D02*
X187616797Y-173385257D01*
X187616797Y-173385257D02*
X188045368Y-173385257D01*
X188045368Y-173385257D02*
X188331082Y-173528114D01*
X189759653Y-175385257D02*
X189759653Y-173385257D01*
X189759653Y-172385257D02*
X189616796Y-172528114D01*
X189616796Y-172528114D02*
X189759653Y-172670971D01*
X189759653Y-172670971D02*
X189902510Y-172528114D01*
X189902510Y-172528114D02*
X189759653Y-172385257D01*
X189759653Y-172385257D02*
X189759653Y-172670971D01*
X192473939Y-173385257D02*
X192473939Y-175813828D01*
X192473939Y-175813828D02*
X192331081Y-176099542D01*
X192331081Y-176099542D02*
X192188224Y-176242400D01*
X192188224Y-176242400D02*
X191902510Y-176385257D01*
X191902510Y-176385257D02*
X191473939Y-176385257D01*
X191473939Y-176385257D02*
X191188224Y-176242400D01*
X192473939Y-175242400D02*
X192188224Y-175385257D01*
X192188224Y-175385257D02*
X191616796Y-175385257D01*
X191616796Y-175385257D02*
X191331081Y-175242400D01*
X191331081Y-175242400D02*
X191188224Y-175099542D01*
X191188224Y-175099542D02*
X191045367Y-174813828D01*
X191045367Y-174813828D02*
X191045367Y-173956685D01*
X191045367Y-173956685D02*
X191188224Y-173670971D01*
X191188224Y-173670971D02*
X191331081Y-173528114D01*
X191331081Y-173528114D02*
X191616796Y-173385257D01*
X191616796Y-173385257D02*
X192188224Y-173385257D01*
X192188224Y-173385257D02*
X192473939Y-173528114D01*
X193902510Y-173385257D02*
X193902510Y-175385257D01*
X193902510Y-173670971D02*
X194045367Y-173528114D01*
X194045367Y-173528114D02*
X194331082Y-173385257D01*
X194331082Y-173385257D02*
X194759653Y-173385257D01*
X194759653Y-173385257D02*
X195045367Y-173528114D01*
X195045367Y-173528114D02*
X195188225Y-173813828D01*
X195188225Y-173813828D02*
X195188225Y-175385257D01*
X197759653Y-175242400D02*
X197473939Y-175385257D01*
X197473939Y-175385257D02*
X196902511Y-175385257D01*
X196902511Y-175385257D02*
X196616796Y-175242400D01*
X196616796Y-175242400D02*
X196473939Y-174956685D01*
X196473939Y-174956685D02*
X196473939Y-173813828D01*
X196473939Y-173813828D02*
X196616796Y-173528114D01*
X196616796Y-173528114D02*
X196902511Y-173385257D01*
X196902511Y-173385257D02*
X197473939Y-173385257D01*
X197473939Y-173385257D02*
X197759653Y-173528114D01*
X197759653Y-173528114D02*
X197902511Y-173813828D01*
X197902511Y-173813828D02*
X197902511Y-174099542D01*
X197902511Y-174099542D02*
X196473939Y-174385257D01*
X200473940Y-175385257D02*
X200473940Y-172385257D01*
X200473940Y-175242400D02*
X200188225Y-175385257D01*
X200188225Y-175385257D02*
X199616797Y-175385257D01*
X199616797Y-175385257D02*
X199331082Y-175242400D01*
X199331082Y-175242400D02*
X199188225Y-175099542D01*
X199188225Y-175099542D02*
X199045368Y-174813828D01*
X199045368Y-174813828D02*
X199045368Y-173956685D01*
X199045368Y-173956685D02*
X199188225Y-173670971D01*
X199188225Y-173670971D02*
X199331082Y-173528114D01*
X199331082Y-173528114D02*
X199616797Y-173385257D01*
X199616797Y-173385257D02*
X200188225Y-173385257D01*
X200188225Y-173385257D02*
X200473940Y-173528114D01*
X205188225Y-173813828D02*
X205616797Y-173956685D01*
X205616797Y-173956685D02*
X205759654Y-174099542D01*
X205759654Y-174099542D02*
X205902511Y-174385257D01*
X205902511Y-174385257D02*
X205902511Y-174813828D01*
X205902511Y-174813828D02*
X205759654Y-175099542D01*
X205759654Y-175099542D02*
X205616797Y-175242400D01*
X205616797Y-175242400D02*
X205331082Y-175385257D01*
X205331082Y-175385257D02*
X204188225Y-175385257D01*
X204188225Y-175385257D02*
X204188225Y-172385257D01*
X204188225Y-172385257D02*
X205188225Y-172385257D01*
X205188225Y-172385257D02*
X205473940Y-172528114D01*
X205473940Y-172528114D02*
X205616797Y-172670971D01*
X205616797Y-172670971D02*
X205759654Y-172956685D01*
X205759654Y-172956685D02*
X205759654Y-173242400D01*
X205759654Y-173242400D02*
X205616797Y-173528114D01*
X205616797Y-173528114D02*
X205473940Y-173670971D01*
X205473940Y-173670971D02*
X205188225Y-173813828D01*
X205188225Y-173813828D02*
X204188225Y-173813828D01*
X206902511Y-173385257D02*
X207616797Y-175385257D01*
X208331082Y-173385257D02*
X207616797Y-175385257D01*
X207616797Y-175385257D02*
X207331082Y-176099542D01*
X207331082Y-176099542D02*
X207188225Y-176242400D01*
X207188225Y-176242400D02*
X206902511Y-176385257D01*
X209473939Y-175099542D02*
X209616796Y-175242400D01*
X209616796Y-175242400D02*
X209473939Y-175385257D01*
X209473939Y-175385257D02*
X209331082Y-175242400D01*
X209331082Y-175242400D02*
X209473939Y-175099542D01*
X209473939Y-175099542D02*
X209473939Y-175385257D01*
X209473939Y-173528114D02*
X209616796Y-173670971D01*
X209616796Y-173670971D02*
X209473939Y-173813828D01*
X209473939Y-173813828D02*
X209331082Y-173670971D01*
X209331082Y-173670971D02*
X209473939Y-173528114D01*
X209473939Y-173528114D02*
X209473939Y-173813828D01*
X213188224Y-175385257D02*
X213188224Y-172385257D01*
X213188224Y-172385257D02*
X214188224Y-174528114D01*
X214188224Y-174528114D02*
X215188224Y-172385257D01*
X215188224Y-172385257D02*
X215188224Y-175385257D01*
X216616795Y-175385257D02*
X216616795Y-173385257D01*
X216616795Y-172385257D02*
X216473938Y-172528114D01*
X216473938Y-172528114D02*
X216616795Y-172670971D01*
X216616795Y-172670971D02*
X216759652Y-172528114D01*
X216759652Y-172528114D02*
X216616795Y-172385257D01*
X216616795Y-172385257D02*
X216616795Y-172670971D01*
X219331081Y-175242400D02*
X219045366Y-175385257D01*
X219045366Y-175385257D02*
X218473938Y-175385257D01*
X218473938Y-175385257D02*
X218188223Y-175242400D01*
X218188223Y-175242400D02*
X218045366Y-175099542D01*
X218045366Y-175099542D02*
X217902509Y-174813828D01*
X217902509Y-174813828D02*
X217902509Y-173956685D01*
X217902509Y-173956685D02*
X218045366Y-173670971D01*
X218045366Y-173670971D02*
X218188223Y-173528114D01*
X218188223Y-173528114D02*
X218473938Y-173385257D01*
X218473938Y-173385257D02*
X219045366Y-173385257D01*
X219045366Y-173385257D02*
X219331081Y-173528114D01*
X220616795Y-175385257D02*
X220616795Y-172385257D01*
X221902510Y-175385257D02*
X221902510Y-173813828D01*
X221902510Y-173813828D02*
X221759652Y-173528114D01*
X221759652Y-173528114D02*
X221473938Y-173385257D01*
X221473938Y-173385257D02*
X221045367Y-173385257D01*
X221045367Y-173385257D02*
X220759652Y-173528114D01*
X220759652Y-173528114D02*
X220616795Y-173670971D01*
X224616796Y-175385257D02*
X224616796Y-173813828D01*
X224616796Y-173813828D02*
X224473938Y-173528114D01*
X224473938Y-173528114D02*
X224188224Y-173385257D01*
X224188224Y-173385257D02*
X223616796Y-173385257D01*
X223616796Y-173385257D02*
X223331081Y-173528114D01*
X224616796Y-175242400D02*
X224331081Y-175385257D01*
X224331081Y-175385257D02*
X223616796Y-175385257D01*
X223616796Y-175385257D02*
X223331081Y-175242400D01*
X223331081Y-175242400D02*
X223188224Y-174956685D01*
X223188224Y-174956685D02*
X223188224Y-174670971D01*
X223188224Y-174670971D02*
X223331081Y-174385257D01*
X223331081Y-174385257D02*
X223616796Y-174242400D01*
X223616796Y-174242400D02*
X224331081Y-174242400D01*
X224331081Y-174242400D02*
X224616796Y-174099542D01*
X227188224Y-175242400D02*
X226902510Y-175385257D01*
X226902510Y-175385257D02*
X226331082Y-175385257D01*
X226331082Y-175385257D02*
X226045367Y-175242400D01*
X226045367Y-175242400D02*
X225902510Y-174956685D01*
X225902510Y-174956685D02*
X225902510Y-173813828D01*
X225902510Y-173813828D02*
X226045367Y-173528114D01*
X226045367Y-173528114D02*
X226331082Y-173385257D01*
X226331082Y-173385257D02*
X226902510Y-173385257D01*
X226902510Y-173385257D02*
X227188224Y-173528114D01*
X227188224Y-173528114D02*
X227331082Y-173813828D01*
X227331082Y-173813828D02*
X227331082Y-174099542D01*
X227331082Y-174099542D02*
X225902510Y-174385257D01*
X229045368Y-175385257D02*
X228759653Y-175242400D01*
X228759653Y-175242400D02*
X228616796Y-174956685D01*
X228616796Y-174956685D02*
X228616796Y-172385257D01*
X233473939Y-173813828D02*
X233902511Y-173956685D01*
X233902511Y-173956685D02*
X234045368Y-174099542D01*
X234045368Y-174099542D02*
X234188225Y-174385257D01*
X234188225Y-174385257D02*
X234188225Y-174813828D01*
X234188225Y-174813828D02*
X234045368Y-175099542D01*
X234045368Y-175099542D02*
X233902511Y-175242400D01*
X233902511Y-175242400D02*
X233616796Y-175385257D01*
X233616796Y-175385257D02*
X232473939Y-175385257D01*
X232473939Y-175385257D02*
X232473939Y-172385257D01*
X232473939Y-172385257D02*
X233473939Y-172385257D01*
X233473939Y-172385257D02*
X233759654Y-172528114D01*
X233759654Y-172528114D02*
X233902511Y-172670971D01*
X233902511Y-172670971D02*
X234045368Y-172956685D01*
X234045368Y-172956685D02*
X234045368Y-173242400D01*
X234045368Y-173242400D02*
X233902511Y-173528114D01*
X233902511Y-173528114D02*
X233759654Y-173670971D01*
X233759654Y-173670971D02*
X233473939Y-173813828D01*
X233473939Y-173813828D02*
X232473939Y-173813828D01*
X235473939Y-175099542D02*
X235616796Y-175242400D01*
X235616796Y-175242400D02*
X235473939Y-175385257D01*
X235473939Y-175385257D02*
X235331082Y-175242400D01*
X235331082Y-175242400D02*
X235473939Y-175099542D01*
X235473939Y-175099542D02*
X235473939Y-175385257D01*
X240616796Y-175385257D02*
X239188224Y-175385257D01*
X239188224Y-175385257D02*
X239188224Y-172385257D01*
X242902510Y-175385257D02*
X242902510Y-173813828D01*
X242902510Y-173813828D02*
X242759652Y-173528114D01*
X242759652Y-173528114D02*
X242473938Y-173385257D01*
X242473938Y-173385257D02*
X241902510Y-173385257D01*
X241902510Y-173385257D02*
X241616795Y-173528114D01*
X242902510Y-175242400D02*
X242616795Y-175385257D01*
X242616795Y-175385257D02*
X241902510Y-175385257D01*
X241902510Y-175385257D02*
X241616795Y-175242400D01*
X241616795Y-175242400D02*
X241473938Y-174956685D01*
X241473938Y-174956685D02*
X241473938Y-174670971D01*
X241473938Y-174670971D02*
X241616795Y-174385257D01*
X241616795Y-174385257D02*
X241902510Y-174242400D01*
X241902510Y-174242400D02*
X242616795Y-174242400D01*
X242616795Y-174242400D02*
X242902510Y-174099542D01*
X244331081Y-173385257D02*
X244331081Y-175385257D01*
X244331081Y-173670971D02*
X244473938Y-173528114D01*
X244473938Y-173528114D02*
X244759653Y-173385257D01*
X244759653Y-173385257D02*
X245188224Y-173385257D01*
X245188224Y-173385257D02*
X245473938Y-173528114D01*
X245473938Y-173528114D02*
X245616796Y-173813828D01*
X245616796Y-173813828D02*
X245616796Y-175385257D01*
X248331082Y-175242400D02*
X248045367Y-175385257D01*
X248045367Y-175385257D02*
X247473939Y-175385257D01*
X247473939Y-175385257D02*
X247188224Y-175242400D01*
X247188224Y-175242400D02*
X247045367Y-175099542D01*
X247045367Y-175099542D02*
X246902510Y-174813828D01*
X246902510Y-174813828D02*
X246902510Y-173956685D01*
X246902510Y-173956685D02*
X247045367Y-173670971D01*
X247045367Y-173670971D02*
X247188224Y-173528114D01*
X247188224Y-173528114D02*
X247473939Y-173385257D01*
X247473939Y-173385257D02*
X248045367Y-173385257D01*
X248045367Y-173385257D02*
X248331082Y-173528114D01*
X250759653Y-175242400D02*
X250473939Y-175385257D01*
X250473939Y-175385257D02*
X249902511Y-175385257D01*
X249902511Y-175385257D02*
X249616796Y-175242400D01*
X249616796Y-175242400D02*
X249473939Y-174956685D01*
X249473939Y-174956685D02*
X249473939Y-173813828D01*
X249473939Y-173813828D02*
X249616796Y-173528114D01*
X249616796Y-173528114D02*
X249902511Y-173385257D01*
X249902511Y-173385257D02*
X250473939Y-173385257D01*
X250473939Y-173385257D02*
X250759653Y-173528114D01*
X250759653Y-173528114D02*
X250902511Y-173813828D01*
X250902511Y-173813828D02*
X250902511Y-174099542D01*
X250902511Y-174099542D02*
X249473939Y-174385257D01*
D10*
D11*
X187339653Y-190157971D02*
X187268225Y-190229400D01*
X187268225Y-190229400D02*
X187053939Y-190300828D01*
X187053939Y-190300828D02*
X186911082Y-190300828D01*
X186911082Y-190300828D02*
X186696796Y-190229400D01*
X186696796Y-190229400D02*
X186553939Y-190086542D01*
X186553939Y-190086542D02*
X186482510Y-189943685D01*
X186482510Y-189943685D02*
X186411082Y-189657971D01*
X186411082Y-189657971D02*
X186411082Y-189443685D01*
X186411082Y-189443685D02*
X186482510Y-189157971D01*
X186482510Y-189157971D02*
X186553939Y-189015114D01*
X186553939Y-189015114D02*
X186696796Y-188872257D01*
X186696796Y-188872257D02*
X186911082Y-188800828D01*
X186911082Y-188800828D02*
X187053939Y-188800828D01*
X187053939Y-188800828D02*
X187268225Y-188872257D01*
X187268225Y-188872257D02*
X187339653Y-188943685D01*
X188196796Y-190300828D02*
X188053939Y-190229400D01*
X188053939Y-190229400D02*
X187982510Y-190157971D01*
X187982510Y-190157971D02*
X187911082Y-190015114D01*
X187911082Y-190015114D02*
X187911082Y-189586542D01*
X187911082Y-189586542D02*
X187982510Y-189443685D01*
X187982510Y-189443685D02*
X188053939Y-189372257D01*
X188053939Y-189372257D02*
X188196796Y-189300828D01*
X188196796Y-189300828D02*
X188411082Y-189300828D01*
X188411082Y-189300828D02*
X188553939Y-189372257D01*
X188553939Y-189372257D02*
X188625368Y-189443685D01*
X188625368Y-189443685D02*
X188696796Y-189586542D01*
X188696796Y-189586542D02*
X188696796Y-190015114D01*
X188696796Y-190015114D02*
X188625368Y-190157971D01*
X188625368Y-190157971D02*
X188553939Y-190229400D01*
X188553939Y-190229400D02*
X188411082Y-190300828D01*
X188411082Y-190300828D02*
X188196796Y-190300828D01*
X189339653Y-190300828D02*
X189339653Y-189300828D01*
X189339653Y-189443685D02*
X189411082Y-189372257D01*
X189411082Y-189372257D02*
X189553939Y-189300828D01*
X189553939Y-189300828D02*
X189768225Y-189300828D01*
X189768225Y-189300828D02*
X189911082Y-189372257D01*
X189911082Y-189372257D02*
X189982511Y-189515114D01*
X189982511Y-189515114D02*
X189982511Y-190300828D01*
X189982511Y-189515114D02*
X190053939Y-189372257D01*
X190053939Y-189372257D02*
X190196796Y-189300828D01*
X190196796Y-189300828D02*
X190411082Y-189300828D01*
X190411082Y-189300828D02*
X190553939Y-189372257D01*
X190553939Y-189372257D02*
X190625368Y-189515114D01*
X190625368Y-189515114D02*
X190625368Y-190300828D01*
X191339653Y-189300828D02*
X191339653Y-190800828D01*
X191339653Y-189372257D02*
X191482511Y-189300828D01*
X191482511Y-189300828D02*
X191768225Y-189300828D01*
X191768225Y-189300828D02*
X191911082Y-189372257D01*
X191911082Y-189372257D02*
X191982511Y-189443685D01*
X191982511Y-189443685D02*
X192053939Y-189586542D01*
X192053939Y-189586542D02*
X192053939Y-190015114D01*
X192053939Y-190015114D02*
X191982511Y-190157971D01*
X191982511Y-190157971D02*
X191911082Y-190229400D01*
X191911082Y-190229400D02*
X191768225Y-190300828D01*
X191768225Y-190300828D02*
X191482511Y-190300828D01*
X191482511Y-190300828D02*
X191339653Y-190229400D01*
X192482511Y-189300828D02*
X193053939Y-189300828D01*
X192696796Y-188800828D02*
X192696796Y-190086542D01*
X192696796Y-190086542D02*
X192768225Y-190229400D01*
X192768225Y-190229400D02*
X192911082Y-190300828D01*
X192911082Y-190300828D02*
X193053939Y-190300828D01*
X194125368Y-190229400D02*
X193982511Y-190300828D01*
X193982511Y-190300828D02*
X193696797Y-190300828D01*
X193696797Y-190300828D02*
X193553939Y-190229400D01*
X193553939Y-190229400D02*
X193482511Y-190086542D01*
X193482511Y-190086542D02*
X193482511Y-189515114D01*
X193482511Y-189515114D02*
X193553939Y-189372257D01*
X193553939Y-189372257D02*
X193696797Y-189300828D01*
X193696797Y-189300828D02*
X193982511Y-189300828D01*
X193982511Y-189300828D02*
X194125368Y-189372257D01*
X194125368Y-189372257D02*
X194196797Y-189515114D01*
X194196797Y-189515114D02*
X194196797Y-189657971D01*
X194196797Y-189657971D02*
X193482511Y-189800828D01*
X195482511Y-190229400D02*
X195339653Y-190300828D01*
X195339653Y-190300828D02*
X195053939Y-190300828D01*
X195053939Y-190300828D02*
X194911082Y-190229400D01*
X194911082Y-190229400D02*
X194839653Y-190157971D01*
X194839653Y-190157971D02*
X194768225Y-190015114D01*
X194768225Y-190015114D02*
X194768225Y-189586542D01*
X194768225Y-189586542D02*
X194839653Y-189443685D01*
X194839653Y-189443685D02*
X194911082Y-189372257D01*
X194911082Y-189372257D02*
X195053939Y-189300828D01*
X195053939Y-189300828D02*
X195339653Y-189300828D01*
X195339653Y-189300828D02*
X195482511Y-189372257D01*
X196125367Y-190300828D02*
X196125367Y-188800828D01*
X196768225Y-190300828D02*
X196768225Y-189515114D01*
X196768225Y-189515114D02*
X196696796Y-189372257D01*
X196696796Y-189372257D02*
X196553939Y-189300828D01*
X196553939Y-189300828D02*
X196339653Y-189300828D01*
X196339653Y-189300828D02*
X196196796Y-189372257D01*
X196196796Y-189372257D02*
X196125367Y-189443685D01*
X198553939Y-189872257D02*
X199268225Y-189872257D01*
X198411082Y-190300828D02*
X198911082Y-188800828D01*
X198911082Y-188800828D02*
X199411082Y-190300828D01*
X199911081Y-190300828D02*
X199911081Y-189300828D01*
X199911081Y-189586542D02*
X199982510Y-189443685D01*
X199982510Y-189443685D02*
X200053939Y-189372257D01*
X200053939Y-189372257D02*
X200196796Y-189300828D01*
X200196796Y-189300828D02*
X200339653Y-189300828D01*
X201482510Y-190300828D02*
X201482510Y-188800828D01*
X201482510Y-190229400D02*
X201339652Y-190300828D01*
X201339652Y-190300828D02*
X201053938Y-190300828D01*
X201053938Y-190300828D02*
X200911081Y-190229400D01*
X200911081Y-190229400D02*
X200839652Y-190157971D01*
X200839652Y-190157971D02*
X200768224Y-190015114D01*
X200768224Y-190015114D02*
X200768224Y-189586542D01*
X200768224Y-189586542D02*
X200839652Y-189443685D01*
X200839652Y-189443685D02*
X200911081Y-189372257D01*
X200911081Y-189372257D02*
X201053938Y-189300828D01*
X201053938Y-189300828D02*
X201339652Y-189300828D01*
X201339652Y-189300828D02*
X201482510Y-189372257D01*
X202839653Y-189300828D02*
X202839653Y-190300828D01*
X202196795Y-189300828D02*
X202196795Y-190086542D01*
X202196795Y-190086542D02*
X202268224Y-190229400D01*
X202268224Y-190229400D02*
X202411081Y-190300828D01*
X202411081Y-190300828D02*
X202625367Y-190300828D01*
X202625367Y-190300828D02*
X202768224Y-190229400D01*
X202768224Y-190229400D02*
X202839653Y-190157971D01*
X203553938Y-190300828D02*
X203553938Y-189300828D01*
X203553938Y-188800828D02*
X203482510Y-188872257D01*
X203482510Y-188872257D02*
X203553938Y-188943685D01*
X203553938Y-188943685D02*
X203625367Y-188872257D01*
X203625367Y-188872257D02*
X203553938Y-188800828D01*
X203553938Y-188800828D02*
X203553938Y-188943685D01*
X204268224Y-189300828D02*
X204268224Y-190300828D01*
X204268224Y-189443685D02*
X204339653Y-189372257D01*
X204339653Y-189372257D02*
X204482510Y-189300828D01*
X204482510Y-189300828D02*
X204696796Y-189300828D01*
X204696796Y-189300828D02*
X204839653Y-189372257D01*
X204839653Y-189372257D02*
X204911082Y-189515114D01*
X204911082Y-189515114D02*
X204911082Y-190300828D01*
X205839653Y-190300828D02*
X205696796Y-190229400D01*
X205696796Y-190229400D02*
X205625367Y-190157971D01*
X205625367Y-190157971D02*
X205553939Y-190015114D01*
X205553939Y-190015114D02*
X205553939Y-189586542D01*
X205553939Y-189586542D02*
X205625367Y-189443685D01*
X205625367Y-189443685D02*
X205696796Y-189372257D01*
X205696796Y-189372257D02*
X205839653Y-189300828D01*
X205839653Y-189300828D02*
X206053939Y-189300828D01*
X206053939Y-189300828D02*
X206196796Y-189372257D01*
X206196796Y-189372257D02*
X206268225Y-189443685D01*
X206268225Y-189443685D02*
X206339653Y-189586542D01*
X206339653Y-189586542D02*
X206339653Y-190015114D01*
X206339653Y-190015114D02*
X206268225Y-190157971D01*
X206268225Y-190157971D02*
X206196796Y-190229400D01*
X206196796Y-190229400D02*
X206053939Y-190300828D01*
X206053939Y-190300828D02*
X205839653Y-190300828D01*
X208982510Y-190157971D02*
X208911082Y-190229400D01*
X208911082Y-190229400D02*
X208696796Y-190300828D01*
X208696796Y-190300828D02*
X208553939Y-190300828D01*
X208553939Y-190300828D02*
X208339653Y-190229400D01*
X208339653Y-190229400D02*
X208196796Y-190086542D01*
X208196796Y-190086542D02*
X208125367Y-189943685D01*
X208125367Y-189943685D02*
X208053939Y-189657971D01*
X208053939Y-189657971D02*
X208053939Y-189443685D01*
X208053939Y-189443685D02*
X208125367Y-189157971D01*
X208125367Y-189157971D02*
X208196796Y-189015114D01*
X208196796Y-189015114D02*
X208339653Y-188872257D01*
X208339653Y-188872257D02*
X208553939Y-188800828D01*
X208553939Y-188800828D02*
X208696796Y-188800828D01*
X208696796Y-188800828D02*
X208911082Y-188872257D01*
X208911082Y-188872257D02*
X208982510Y-188943685D01*
X209839653Y-190300828D02*
X209696796Y-190229400D01*
X209696796Y-190229400D02*
X209625367Y-190157971D01*
X209625367Y-190157971D02*
X209553939Y-190015114D01*
X209553939Y-190015114D02*
X209553939Y-189586542D01*
X209553939Y-189586542D02*
X209625367Y-189443685D01*
X209625367Y-189443685D02*
X209696796Y-189372257D01*
X209696796Y-189372257D02*
X209839653Y-189300828D01*
X209839653Y-189300828D02*
X210053939Y-189300828D01*
X210053939Y-189300828D02*
X210196796Y-189372257D01*
X210196796Y-189372257D02*
X210268225Y-189443685D01*
X210268225Y-189443685D02*
X210339653Y-189586542D01*
X210339653Y-189586542D02*
X210339653Y-190015114D01*
X210339653Y-190015114D02*
X210268225Y-190157971D01*
X210268225Y-190157971D02*
X210196796Y-190229400D01*
X210196796Y-190229400D02*
X210053939Y-190300828D01*
X210053939Y-190300828D02*
X209839653Y-190300828D01*
X210982510Y-190300828D02*
X210982510Y-189300828D01*
X210982510Y-189443685D02*
X211053939Y-189372257D01*
X211053939Y-189372257D02*
X211196796Y-189300828D01*
X211196796Y-189300828D02*
X211411082Y-189300828D01*
X211411082Y-189300828D02*
X211553939Y-189372257D01*
X211553939Y-189372257D02*
X211625368Y-189515114D01*
X211625368Y-189515114D02*
X211625368Y-190300828D01*
X211625368Y-189515114D02*
X211696796Y-189372257D01*
X211696796Y-189372257D02*
X211839653Y-189300828D01*
X211839653Y-189300828D02*
X212053939Y-189300828D01*
X212053939Y-189300828D02*
X212196796Y-189372257D01*
X212196796Y-189372257D02*
X212268225Y-189515114D01*
X212268225Y-189515114D02*
X212268225Y-190300828D01*
X212982510Y-189300828D02*
X212982510Y-190800828D01*
X212982510Y-189372257D02*
X213125368Y-189300828D01*
X213125368Y-189300828D02*
X213411082Y-189300828D01*
X213411082Y-189300828D02*
X213553939Y-189372257D01*
X213553939Y-189372257D02*
X213625368Y-189443685D01*
X213625368Y-189443685D02*
X213696796Y-189586542D01*
X213696796Y-189586542D02*
X213696796Y-190015114D01*
X213696796Y-190015114D02*
X213625368Y-190157971D01*
X213625368Y-190157971D02*
X213553939Y-190229400D01*
X213553939Y-190229400D02*
X213411082Y-190300828D01*
X213411082Y-190300828D02*
X213125368Y-190300828D01*
X213125368Y-190300828D02*
X212982510Y-190229400D01*
X214553939Y-190300828D02*
X214411082Y-190229400D01*
X214411082Y-190229400D02*
X214339653Y-190157971D01*
X214339653Y-190157971D02*
X214268225Y-190015114D01*
X214268225Y-190015114D02*
X214268225Y-189586542D01*
X214268225Y-189586542D02*
X214339653Y-189443685D01*
X214339653Y-189443685D02*
X214411082Y-189372257D01*
X214411082Y-189372257D02*
X214553939Y-189300828D01*
X214553939Y-189300828D02*
X214768225Y-189300828D01*
X214768225Y-189300828D02*
X214911082Y-189372257D01*
X214911082Y-189372257D02*
X214982511Y-189443685D01*
X214982511Y-189443685D02*
X215053939Y-189586542D01*
X215053939Y-189586542D02*
X215053939Y-190015114D01*
X215053939Y-190015114D02*
X214982511Y-190157971D01*
X214982511Y-190157971D02*
X214911082Y-190229400D01*
X214911082Y-190229400D02*
X214768225Y-190300828D01*
X214768225Y-190300828D02*
X214553939Y-190300828D01*
X215696796Y-189300828D02*
X215696796Y-190300828D01*
X215696796Y-189443685D02*
X215768225Y-189372257D01*
X215768225Y-189372257D02*
X215911082Y-189300828D01*
X215911082Y-189300828D02*
X216125368Y-189300828D01*
X216125368Y-189300828D02*
X216268225Y-189372257D01*
X216268225Y-189372257D02*
X216339654Y-189515114D01*
X216339654Y-189515114D02*
X216339654Y-190300828D01*
X217625368Y-190229400D02*
X217482511Y-190300828D01*
X217482511Y-190300828D02*
X217196797Y-190300828D01*
X217196797Y-190300828D02*
X217053939Y-190229400D01*
X217053939Y-190229400D02*
X216982511Y-190086542D01*
X216982511Y-190086542D02*
X216982511Y-189515114D01*
X216982511Y-189515114D02*
X217053939Y-189372257D01*
X217053939Y-189372257D02*
X217196797Y-189300828D01*
X217196797Y-189300828D02*
X217482511Y-189300828D01*
X217482511Y-189300828D02*
X217625368Y-189372257D01*
X217625368Y-189372257D02*
X217696797Y-189515114D01*
X217696797Y-189515114D02*
X217696797Y-189657971D01*
X217696797Y-189657971D02*
X216982511Y-189800828D01*
X218339653Y-189300828D02*
X218339653Y-190300828D01*
X218339653Y-189443685D02*
X218411082Y-189372257D01*
X218411082Y-189372257D02*
X218553939Y-189300828D01*
X218553939Y-189300828D02*
X218768225Y-189300828D01*
X218768225Y-189300828D02*
X218911082Y-189372257D01*
X218911082Y-189372257D02*
X218982511Y-189515114D01*
X218982511Y-189515114D02*
X218982511Y-190300828D01*
X219482511Y-189300828D02*
X220053939Y-189300828D01*
X219696796Y-188800828D02*
X219696796Y-190086542D01*
X219696796Y-190086542D02*
X219768225Y-190229400D01*
X219768225Y-190229400D02*
X219911082Y-190300828D01*
X219911082Y-190300828D02*
X220053939Y-190300828D01*
X221625368Y-190229400D02*
X221839654Y-190300828D01*
X221839654Y-190300828D02*
X222196796Y-190300828D01*
X222196796Y-190300828D02*
X222339654Y-190229400D01*
X222339654Y-190229400D02*
X222411082Y-190157971D01*
X222411082Y-190157971D02*
X222482511Y-190015114D01*
X222482511Y-190015114D02*
X222482511Y-189872257D01*
X222482511Y-189872257D02*
X222411082Y-189729400D01*
X222411082Y-189729400D02*
X222339654Y-189657971D01*
X222339654Y-189657971D02*
X222196796Y-189586542D01*
X222196796Y-189586542D02*
X221911082Y-189515114D01*
X221911082Y-189515114D02*
X221768225Y-189443685D01*
X221768225Y-189443685D02*
X221696796Y-189372257D01*
X221696796Y-189372257D02*
X221625368Y-189229400D01*
X221625368Y-189229400D02*
X221625368Y-189086542D01*
X221625368Y-189086542D02*
X221696796Y-188943685D01*
X221696796Y-188943685D02*
X221768225Y-188872257D01*
X221768225Y-188872257D02*
X221911082Y-188800828D01*
X221911082Y-188800828D02*
X222268225Y-188800828D01*
X222268225Y-188800828D02*
X222482511Y-188872257D01*
X222911082Y-189300828D02*
X223482510Y-189300828D01*
X223125367Y-188800828D02*
X223125367Y-190086542D01*
X223125367Y-190086542D02*
X223196796Y-190229400D01*
X223196796Y-190229400D02*
X223339653Y-190300828D01*
X223339653Y-190300828D02*
X223482510Y-190300828D01*
X224196796Y-190300828D02*
X224053939Y-190229400D01*
X224053939Y-190229400D02*
X223982510Y-190157971D01*
X223982510Y-190157971D02*
X223911082Y-190015114D01*
X223911082Y-190015114D02*
X223911082Y-189586542D01*
X223911082Y-189586542D02*
X223982510Y-189443685D01*
X223982510Y-189443685D02*
X224053939Y-189372257D01*
X224053939Y-189372257D02*
X224196796Y-189300828D01*
X224196796Y-189300828D02*
X224411082Y-189300828D01*
X224411082Y-189300828D02*
X224553939Y-189372257D01*
X224553939Y-189372257D02*
X224625368Y-189443685D01*
X224625368Y-189443685D02*
X224696796Y-189586542D01*
X224696796Y-189586542D02*
X224696796Y-190015114D01*
X224696796Y-190015114D02*
X224625368Y-190157971D01*
X224625368Y-190157971D02*
X224553939Y-190229400D01*
X224553939Y-190229400D02*
X224411082Y-190300828D01*
X224411082Y-190300828D02*
X224196796Y-190300828D01*
X225339653Y-190300828D02*
X225339653Y-189300828D01*
X225339653Y-189586542D02*
X225411082Y-189443685D01*
X225411082Y-189443685D02*
X225482511Y-189372257D01*
X225482511Y-189372257D02*
X225625368Y-189300828D01*
X225625368Y-189300828D02*
X225768225Y-189300828D01*
X226911082Y-190300828D02*
X226911082Y-189515114D01*
X226911082Y-189515114D02*
X226839653Y-189372257D01*
X226839653Y-189372257D02*
X226696796Y-189300828D01*
X226696796Y-189300828D02*
X226411082Y-189300828D01*
X226411082Y-189300828D02*
X226268224Y-189372257D01*
X226911082Y-190229400D02*
X226768224Y-190300828D01*
X226768224Y-190300828D02*
X226411082Y-190300828D01*
X226411082Y-190300828D02*
X226268224Y-190229400D01*
X226268224Y-190229400D02*
X226196796Y-190086542D01*
X226196796Y-190086542D02*
X226196796Y-189943685D01*
X226196796Y-189943685D02*
X226268224Y-189800828D01*
X226268224Y-189800828D02*
X226411082Y-189729400D01*
X226411082Y-189729400D02*
X226768224Y-189729400D01*
X226768224Y-189729400D02*
X226911082Y-189657971D01*
X228268225Y-189300828D02*
X228268225Y-190515114D01*
X228268225Y-190515114D02*
X228196796Y-190657971D01*
X228196796Y-190657971D02*
X228125367Y-190729400D01*
X228125367Y-190729400D02*
X227982510Y-190800828D01*
X227982510Y-190800828D02*
X227768225Y-190800828D01*
X227768225Y-190800828D02*
X227625367Y-190729400D01*
X228268225Y-190229400D02*
X228125367Y-190300828D01*
X228125367Y-190300828D02*
X227839653Y-190300828D01*
X227839653Y-190300828D02*
X227696796Y-190229400D01*
X227696796Y-190229400D02*
X227625367Y-190157971D01*
X227625367Y-190157971D02*
X227553939Y-190015114D01*
X227553939Y-190015114D02*
X227553939Y-189586542D01*
X227553939Y-189586542D02*
X227625367Y-189443685D01*
X227625367Y-189443685D02*
X227696796Y-189372257D01*
X227696796Y-189372257D02*
X227839653Y-189300828D01*
X227839653Y-189300828D02*
X228125367Y-189300828D01*
X228125367Y-189300828D02*
X228268225Y-189372257D01*
X229553939Y-190229400D02*
X229411082Y-190300828D01*
X229411082Y-190300828D02*
X229125368Y-190300828D01*
X229125368Y-190300828D02*
X228982510Y-190229400D01*
X228982510Y-190229400D02*
X228911082Y-190086542D01*
X228911082Y-190086542D02*
X228911082Y-189515114D01*
X228911082Y-189515114D02*
X228982510Y-189372257D01*
X228982510Y-189372257D02*
X229125368Y-189300828D01*
X229125368Y-189300828D02*
X229411082Y-189300828D01*
X229411082Y-189300828D02*
X229553939Y-189372257D01*
X229553939Y-189372257D02*
X229625368Y-189515114D01*
X229625368Y-189515114D02*
X229625368Y-189657971D01*
X229625368Y-189657971D02*
X228911082Y-189800828D01*
X232053939Y-190300828D02*
X232053939Y-189515114D01*
X232053939Y-189515114D02*
X231982510Y-189372257D01*
X231982510Y-189372257D02*
X231839653Y-189300828D01*
X231839653Y-189300828D02*
X231553939Y-189300828D01*
X231553939Y-189300828D02*
X231411081Y-189372257D01*
X232053939Y-190229400D02*
X231911081Y-190300828D01*
X231911081Y-190300828D02*
X231553939Y-190300828D01*
X231553939Y-190300828D02*
X231411081Y-190229400D01*
X231411081Y-190229400D02*
X231339653Y-190086542D01*
X231339653Y-190086542D02*
X231339653Y-189943685D01*
X231339653Y-189943685D02*
X231411081Y-189800828D01*
X231411081Y-189800828D02*
X231553939Y-189729400D01*
X231553939Y-189729400D02*
X231911081Y-189729400D01*
X231911081Y-189729400D02*
X232053939Y-189657971D01*
X232768224Y-189300828D02*
X232768224Y-190300828D01*
X232768224Y-189443685D02*
X232839653Y-189372257D01*
X232839653Y-189372257D02*
X232982510Y-189300828D01*
X232982510Y-189300828D02*
X233196796Y-189300828D01*
X233196796Y-189300828D02*
X233339653Y-189372257D01*
X233339653Y-189372257D02*
X233411082Y-189515114D01*
X233411082Y-189515114D02*
X233411082Y-190300828D01*
X234768225Y-190300828D02*
X234768225Y-188800828D01*
X234768225Y-190229400D02*
X234625367Y-190300828D01*
X234625367Y-190300828D02*
X234339653Y-190300828D01*
X234339653Y-190300828D02*
X234196796Y-190229400D01*
X234196796Y-190229400D02*
X234125367Y-190157971D01*
X234125367Y-190157971D02*
X234053939Y-190015114D01*
X234053939Y-190015114D02*
X234053939Y-189586542D01*
X234053939Y-189586542D02*
X234125367Y-189443685D01*
X234125367Y-189443685D02*
X234196796Y-189372257D01*
X234196796Y-189372257D02*
X234339653Y-189300828D01*
X234339653Y-189300828D02*
X234625367Y-189300828D01*
X234625367Y-189300828D02*
X234768225Y-189372257D01*
X237482510Y-190300828D02*
X236982510Y-189586542D01*
X236625367Y-190300828D02*
X236625367Y-188800828D01*
X236625367Y-188800828D02*
X237196796Y-188800828D01*
X237196796Y-188800828D02*
X237339653Y-188872257D01*
X237339653Y-188872257D02*
X237411082Y-188943685D01*
X237411082Y-188943685D02*
X237482510Y-189086542D01*
X237482510Y-189086542D02*
X237482510Y-189300828D01*
X237482510Y-189300828D02*
X237411082Y-189443685D01*
X237411082Y-189443685D02*
X237339653Y-189515114D01*
X237339653Y-189515114D02*
X237196796Y-189586542D01*
X237196796Y-189586542D02*
X236625367Y-189586542D01*
X238696796Y-190229400D02*
X238553939Y-190300828D01*
X238553939Y-190300828D02*
X238268225Y-190300828D01*
X238268225Y-190300828D02*
X238125367Y-190229400D01*
X238125367Y-190229400D02*
X238053939Y-190086542D01*
X238053939Y-190086542D02*
X238053939Y-189515114D01*
X238053939Y-189515114D02*
X238125367Y-189372257D01*
X238125367Y-189372257D02*
X238268225Y-189300828D01*
X238268225Y-189300828D02*
X238553939Y-189300828D01*
X238553939Y-189300828D02*
X238696796Y-189372257D01*
X238696796Y-189372257D02*
X238768225Y-189515114D01*
X238768225Y-189515114D02*
X238768225Y-189657971D01*
X238768225Y-189657971D02*
X238053939Y-189800828D01*
X239196796Y-189300828D02*
X239768224Y-189300828D01*
X239411081Y-188800828D02*
X239411081Y-190086542D01*
X239411081Y-190086542D02*
X239482510Y-190229400D01*
X239482510Y-190229400D02*
X239625367Y-190300828D01*
X239625367Y-190300828D02*
X239768224Y-190300828D01*
X240268224Y-190300828D02*
X240268224Y-189300828D01*
X240268224Y-189586542D02*
X240339653Y-189443685D01*
X240339653Y-189443685D02*
X240411082Y-189372257D01*
X240411082Y-189372257D02*
X240553939Y-189300828D01*
X240553939Y-189300828D02*
X240696796Y-189300828D01*
X241196795Y-190300828D02*
X241196795Y-189300828D01*
X241196795Y-188800828D02*
X241125367Y-188872257D01*
X241125367Y-188872257D02*
X241196795Y-188943685D01*
X241196795Y-188943685D02*
X241268224Y-188872257D01*
X241268224Y-188872257D02*
X241196795Y-188800828D01*
X241196795Y-188800828D02*
X241196795Y-188943685D01*
X242482510Y-190229400D02*
X242339653Y-190300828D01*
X242339653Y-190300828D02*
X242053939Y-190300828D01*
X242053939Y-190300828D02*
X241911081Y-190229400D01*
X241911081Y-190229400D02*
X241839653Y-190086542D01*
X241839653Y-190086542D02*
X241839653Y-189515114D01*
X241839653Y-189515114D02*
X241911081Y-189372257D01*
X241911081Y-189372257D02*
X242053939Y-189300828D01*
X242053939Y-189300828D02*
X242339653Y-189300828D01*
X242339653Y-189300828D02*
X242482510Y-189372257D01*
X242482510Y-189372257D02*
X242553939Y-189515114D01*
X242553939Y-189515114D02*
X242553939Y-189657971D01*
X242553939Y-189657971D02*
X241839653Y-189800828D01*
X243053938Y-189300828D02*
X243411081Y-190300828D01*
X243411081Y-190300828D02*
X243768224Y-189300828D01*
X244982510Y-190300828D02*
X244982510Y-189515114D01*
X244982510Y-189515114D02*
X244911081Y-189372257D01*
X244911081Y-189372257D02*
X244768224Y-189300828D01*
X244768224Y-189300828D02*
X244482510Y-189300828D01*
X244482510Y-189300828D02*
X244339652Y-189372257D01*
X244982510Y-190229400D02*
X244839652Y-190300828D01*
X244839652Y-190300828D02*
X244482510Y-190300828D01*
X244482510Y-190300828D02*
X244339652Y-190229400D01*
X244339652Y-190229400D02*
X244268224Y-190086542D01*
X244268224Y-190086542D02*
X244268224Y-189943685D01*
X244268224Y-189943685D02*
X244339652Y-189800828D01*
X244339652Y-189800828D02*
X244482510Y-189729400D01*
X244482510Y-189729400D02*
X244839652Y-189729400D01*
X244839652Y-189729400D02*
X244982510Y-189657971D01*
X245911081Y-190300828D02*
X245768224Y-190229400D01*
X245768224Y-190229400D02*
X245696795Y-190086542D01*
X245696795Y-190086542D02*
X245696795Y-188800828D01*
X248482509Y-190157971D02*
X248411081Y-190229400D01*
X248411081Y-190229400D02*
X248196795Y-190300828D01*
X248196795Y-190300828D02*
X248053938Y-190300828D01*
X248053938Y-190300828D02*
X247839652Y-190229400D01*
X247839652Y-190229400D02*
X247696795Y-190086542D01*
X247696795Y-190086542D02*
X247625366Y-189943685D01*
X247625366Y-189943685D02*
X247553938Y-189657971D01*
X247553938Y-189657971D02*
X247553938Y-189443685D01*
X247553938Y-189443685D02*
X247625366Y-189157971D01*
X247625366Y-189157971D02*
X247696795Y-189015114D01*
X247696795Y-189015114D02*
X247839652Y-188872257D01*
X247839652Y-188872257D02*
X248053938Y-188800828D01*
X248053938Y-188800828D02*
X248196795Y-188800828D01*
X248196795Y-188800828D02*
X248411081Y-188872257D01*
X248411081Y-188872257D02*
X248482509Y-188943685D01*
X249768224Y-190300828D02*
X249768224Y-189515114D01*
X249768224Y-189515114D02*
X249696795Y-189372257D01*
X249696795Y-189372257D02*
X249553938Y-189300828D01*
X249553938Y-189300828D02*
X249268224Y-189300828D01*
X249268224Y-189300828D02*
X249125366Y-189372257D01*
X249768224Y-190229400D02*
X249625366Y-190300828D01*
X249625366Y-190300828D02*
X249268224Y-190300828D01*
X249268224Y-190300828D02*
X249125366Y-190229400D01*
X249125366Y-190229400D02*
X249053938Y-190086542D01*
X249053938Y-190086542D02*
X249053938Y-189943685D01*
X249053938Y-189943685D02*
X249125366Y-189800828D01*
X249125366Y-189800828D02*
X249268224Y-189729400D01*
X249268224Y-189729400D02*
X249625366Y-189729400D01*
X249625366Y-189729400D02*
X249768224Y-189657971D01*
X250482509Y-190300828D02*
X250482509Y-189300828D01*
X250482509Y-189586542D02*
X250553938Y-189443685D01*
X250553938Y-189443685D02*
X250625367Y-189372257D01*
X250625367Y-189372257D02*
X250768224Y-189300828D01*
X250768224Y-189300828D02*
X250911081Y-189300828D01*
X251196795Y-189300828D02*
X251768223Y-189300828D01*
X251411080Y-188800828D02*
X251411080Y-190086542D01*
X251411080Y-190086542D02*
X251482509Y-190229400D01*
X251482509Y-190229400D02*
X251625366Y-190300828D01*
X251625366Y-190300828D02*
X251768223Y-190300828D01*
D10*
D11*
X206731082Y-192499685D02*
X206802510Y-192428257D01*
X206802510Y-192428257D02*
X206945368Y-192356828D01*
X206945368Y-192356828D02*
X207302510Y-192356828D01*
X207302510Y-192356828D02*
X207445368Y-192428257D01*
X207445368Y-192428257D02*
X207516796Y-192499685D01*
X207516796Y-192499685D02*
X207588225Y-192642542D01*
X207588225Y-192642542D02*
X207588225Y-192785400D01*
X207588225Y-192785400D02*
X207516796Y-192999685D01*
X207516796Y-192999685D02*
X206659653Y-193856828D01*
X206659653Y-193856828D02*
X207588225Y-193856828D01*
X209302510Y-192285400D02*
X208016796Y-194213971D01*
X210516796Y-192356828D02*
X209802510Y-192356828D01*
X209802510Y-192356828D02*
X209731082Y-193071114D01*
X209731082Y-193071114D02*
X209802510Y-192999685D01*
X209802510Y-192999685D02*
X209945368Y-192928257D01*
X209945368Y-192928257D02*
X210302510Y-192928257D01*
X210302510Y-192928257D02*
X210445368Y-192999685D01*
X210445368Y-192999685D02*
X210516796Y-193071114D01*
X210516796Y-193071114D02*
X210588225Y-193213971D01*
X210588225Y-193213971D02*
X210588225Y-193571114D01*
X210588225Y-193571114D02*
X210516796Y-193713971D01*
X210516796Y-193713971D02*
X210445368Y-193785400D01*
X210445368Y-193785400D02*
X210302510Y-193856828D01*
X210302510Y-193856828D02*
X209945368Y-193856828D01*
X209945368Y-193856828D02*
X209802510Y-193785400D01*
X209802510Y-193785400D02*
X209731082Y-193713971D01*
X212302510Y-192285400D02*
X211016796Y-194213971D01*
X212731082Y-192499685D02*
X212802510Y-192428257D01*
X212802510Y-192428257D02*
X212945368Y-192356828D01*
X212945368Y-192356828D02*
X213302510Y-192356828D01*
X213302510Y-192356828D02*
X213445368Y-192428257D01*
X213445368Y-192428257D02*
X213516796Y-192499685D01*
X213516796Y-192499685D02*
X213588225Y-192642542D01*
X213588225Y-192642542D02*
X213588225Y-192785400D01*
X213588225Y-192785400D02*
X213516796Y-192999685D01*
X213516796Y-192999685D02*
X212659653Y-193856828D01*
X212659653Y-193856828D02*
X213588225Y-193856828D01*
X214516796Y-192356828D02*
X214659653Y-192356828D01*
X214659653Y-192356828D02*
X214802510Y-192428257D01*
X214802510Y-192428257D02*
X214873939Y-192499685D01*
X214873939Y-192499685D02*
X214945367Y-192642542D01*
X214945367Y-192642542D02*
X215016796Y-192928257D01*
X215016796Y-192928257D02*
X215016796Y-193285400D01*
X215016796Y-193285400D02*
X214945367Y-193571114D01*
X214945367Y-193571114D02*
X214873939Y-193713971D01*
X214873939Y-193713971D02*
X214802510Y-193785400D01*
X214802510Y-193785400D02*
X214659653Y-193856828D01*
X214659653Y-193856828D02*
X214516796Y-193856828D01*
X214516796Y-193856828D02*
X214373939Y-193785400D01*
X214373939Y-193785400D02*
X214302510Y-193713971D01*
X214302510Y-193713971D02*
X214231081Y-193571114D01*
X214231081Y-193571114D02*
X214159653Y-193285400D01*
X214159653Y-193285400D02*
X214159653Y-192928257D01*
X214159653Y-192928257D02*
X214231081Y-192642542D01*
X214231081Y-192642542D02*
X214302510Y-192499685D01*
X214302510Y-192499685D02*
X214373939Y-192428257D01*
X214373939Y-192428257D02*
X214516796Y-192356828D01*
X215588224Y-192499685D02*
X215659652Y-192428257D01*
X215659652Y-192428257D02*
X215802510Y-192356828D01*
X215802510Y-192356828D02*
X216159652Y-192356828D01*
X216159652Y-192356828D02*
X216302510Y-192428257D01*
X216302510Y-192428257D02*
X216373938Y-192499685D01*
X216373938Y-192499685D02*
X216445367Y-192642542D01*
X216445367Y-192642542D02*
X216445367Y-192785400D01*
X216445367Y-192785400D02*
X216373938Y-192999685D01*
X216373938Y-192999685D02*
X215516795Y-193856828D01*
X215516795Y-193856828D02*
X216445367Y-193856828D01*
X217731081Y-192856828D02*
X217731081Y-193856828D01*
X217373938Y-192285400D02*
X217016795Y-193356828D01*
X217016795Y-193356828D02*
X217945366Y-193356828D01*
D10*
D11*
X269564225Y-193856828D02*
X268707082Y-193856828D01*
X269135653Y-193856828D02*
X269135653Y-192356828D01*
X269135653Y-192356828D02*
X268992796Y-192571114D01*
X268992796Y-192571114D02*
X268849939Y-192713971D01*
X268849939Y-192713971D02*
X268707082Y-192785400D01*
X270207081Y-193713971D02*
X270278510Y-193785400D01*
X270278510Y-193785400D02*
X270207081Y-193856828D01*
X270207081Y-193856828D02*
X270135653Y-193785400D01*
X270135653Y-193785400D02*
X270207081Y-193713971D01*
X270207081Y-193713971D02*
X270207081Y-193856828D01*
X271207082Y-192356828D02*
X271349939Y-192356828D01*
X271349939Y-192356828D02*
X271492796Y-192428257D01*
X271492796Y-192428257D02*
X271564225Y-192499685D01*
X271564225Y-192499685D02*
X271635653Y-192642542D01*
X271635653Y-192642542D02*
X271707082Y-192928257D01*
X271707082Y-192928257D02*
X271707082Y-193285400D01*
X271707082Y-193285400D02*
X271635653Y-193571114D01*
X271635653Y-193571114D02*
X271564225Y-193713971D01*
X271564225Y-193713971D02*
X271492796Y-193785400D01*
X271492796Y-193785400D02*
X271349939Y-193856828D01*
X271349939Y-193856828D02*
X271207082Y-193856828D01*
X271207082Y-193856828D02*
X271064225Y-193785400D01*
X271064225Y-193785400D02*
X270992796Y-193713971D01*
X270992796Y-193713971D02*
X270921367Y-193571114D01*
X270921367Y-193571114D02*
X270849939Y-193285400D01*
X270849939Y-193285400D02*
X270849939Y-192928257D01*
X270849939Y-192928257D02*
X270921367Y-192642542D01*
X270921367Y-192642542D02*
X270992796Y-192499685D01*
X270992796Y-192499685D02*
X271064225Y-192428257D01*
X271064225Y-192428257D02*
X271207082Y-192356828D01*
D12*
%TO.P,SW1,1,A*%
%TO.N,Net-(A1-EN)*%
X172720000Y-56388000D03*
D13*
%TO.P,SW1,2,B*%
%TO.N,Net-(A1-GND)*%
X172720000Y-58928000D03*
%TO.P,SW1,3,C*%
X172720000Y-61468000D03*
%TD*%
D14*
%TO.P,J14,*%
%TO.N,*%
X105603000Y-94996000D03*
X117033000Y-94996000D03*
D15*
%TO.P,J14,1*%
%TO.N,Net-(A1-SCL)*%
X106873000Y-88646000D03*
D16*
%TO.P,J14,2*%
X108143000Y-86106000D03*
%TO.P,J14,3*%
X109413000Y-88646000D03*
%TO.P,J14,4*%
X110683000Y-86106000D03*
%TO.P,J14,5*%
%TO.N,Net-(A1-TX)*%
X111953000Y-88646000D03*
%TO.P,J14,6*%
%TO.N,Net-(A1-A2)*%
X113223000Y-86106000D03*
%TO.P,J14,7*%
%TO.N,Net-(A1-SDA)*%
X114493000Y-88646000D03*
%TO.P,J14,8*%
%TO.N,Net-(A1-A3)*%
X115763000Y-86106000D03*
%TD*%
D14*
%TO.P,J3,*%
%TO.N,*%
X87386000Y-36060000D03*
X98816000Y-36060000D03*
D15*
%TO.P,J3,1*%
%TO.N,Net-(A1-MOSI)*%
X88656000Y-29710000D03*
D16*
%TO.P,J3,2*%
X89926000Y-27170000D03*
%TO.P,J3,3*%
X91196000Y-29710000D03*
%TO.P,J3,4*%
X92466000Y-27170000D03*
%TO.P,J3,5*%
%TO.N,Net-(A1-MISO)*%
X93736000Y-29710000D03*
%TO.P,J3,6*%
%TO.N,Net-(A1-A0)*%
X95006000Y-27170000D03*
%TO.P,J3,7*%
%TO.N,Net-(A1-RX)*%
X96276000Y-29710000D03*
%TO.P,J3,8*%
%TO.N,Net-(A1-A1)*%
X97546000Y-27170000D03*
%TD*%
D17*
%TO.P,A1,1,~{RESET}*%
%TO.N,unconnected-(A1-~{RESET}-Pad1)*%
X146685000Y-43815000D03*
D18*
%TO.P,A1,2,3V3*%
%TO.N,unconnected-(A1-3V3-Pad2)*%
X146685000Y-46355000D03*
%TO.P,A1,3,AREF*%
%TO.N,unconnected-(A1-AREF-Pad3)*%
X146685000Y-48895000D03*
%TO.P,A1,4,GND*%
%TO.N,Net-(A1-GND)*%
X146685000Y-51435000D03*
%TO.P,A1,5,A0*%
%TO.N,Net-(A1-A0)*%
X146685000Y-53975000D03*
%TO.P,A1,6,A1*%
%TO.N,Net-(A1-A1)*%
X146685000Y-56515000D03*
%TO.P,A1,7,A2*%
%TO.N,Net-(A1-A2)*%
X146685000Y-59055000D03*
%TO.P,A1,8,A3*%
%TO.N,Net-(A1-A3)*%
X146685000Y-61595000D03*
%TO.P,A1,9,A4*%
%TO.N,Net-(A1-A4)*%
X146685000Y-64135000D03*
%TO.P,A1,10,A5*%
%TO.N,Net-(A1-A5)*%
X146685000Y-66675000D03*
%TO.P,A1,11,SCK*%
%TO.N,Net-(A1-SCK)*%
X146685000Y-69215000D03*
%TO.P,A1,12,MOSI*%
%TO.N,Net-(A1-MOSI)*%
X146685000Y-71755000D03*
%TO.P,A1,13,MISO*%
%TO.N,Net-(A1-MISO)*%
X146685000Y-74295000D03*
%TO.P,A1,14,RX*%
%TO.N,Net-(A1-RX)*%
X146685000Y-76835000D03*
%TO.P,A1,15,TX*%
%TO.N,Net-(A1-TX)*%
X146685000Y-79375000D03*
%TO.P,A1,16,SPARE*%
%TO.N,unconnected-(A1-SPARE-Pad16)*%
X146685000Y-81915000D03*
%TO.P,A1,17,SDA*%
%TO.N,Net-(A1-SDA)*%
X167005000Y-81915000D03*
%TO.P,A1,18,SCL*%
%TO.N,Net-(A1-SCL)*%
X167005000Y-79375000D03*
%TO.P,A1,19,D0*%
%TO.N,Net-(A1-D0)*%
X167005000Y-76835000D03*
%TO.P,A1,20,D1*%
%TO.N,Net-(A1-D1)*%
X167005000Y-74295000D03*
%TO.P,A1,21,D2*%
%TO.N,Net-(A1-D2)*%
X167005000Y-71755000D03*
%TO.P,A1,22,D3*%
%TO.N,unconnected-(A1-D3-Pad22)*%
X167005000Y-69215000D03*
%TO.P,A1,23,D4*%
%TO.N,unconnected-(A1-D4-Pad23)*%
X167005000Y-66675000D03*
%TO.P,A1,24,D5*%
%TO.N,unconnected-(A1-D5-Pad24)*%
X167005000Y-64135000D03*
%TO.P,A1,25,D6*%
%TO.N,unconnected-(A1-D6-Pad25)*%
X167005000Y-61595000D03*
%TO.P,A1,26,USB*%
%TO.N,unconnected-(A1-USB-Pad26)*%
X167005000Y-59055000D03*
%TO.P,A1,27,EN*%
%TO.N,Net-(A1-EN)*%
X167005000Y-56515000D03*
%TO.P,A1,28,VBAT*%
%TO.N,unconnected-(A1-VBAT-Pad28)*%
X167005000Y-53975000D03*
%TD*%
D14*
%TO.P,J16,*%
%TO.N,*%
X123378000Y-94996000D03*
X134808000Y-94996000D03*
D15*
%TO.P,J16,1*%
%TO.N,Net-(A1-SCL)*%
X124648000Y-88646000D03*
D16*
%TO.P,J16,2*%
X125918000Y-86106000D03*
%TO.P,J16,3*%
X127188000Y-88646000D03*
%TO.P,J16,4*%
X128458000Y-86106000D03*
%TO.P,J16,5*%
%TO.N,Net-(A1-TX)*%
X129728000Y-88646000D03*
%TO.P,J16,6*%
%TO.N,Net-(A1-A2)*%
X130998000Y-86106000D03*
%TO.P,J16,7*%
%TO.N,Net-(A1-SDA)*%
X132268000Y-88646000D03*
%TO.P,J16,8*%
%TO.N,Net-(A1-A3)*%
X133538000Y-86106000D03*
%TD*%
D14*
%TO.P,J6,*%
%TO.N,*%
X105603000Y-54610000D03*
X117033000Y-54610000D03*
D15*
%TO.P,J6,1*%
%TO.N,Net-(A1-A4)*%
X106873000Y-48260000D03*
D16*
%TO.P,J6,2*%
X108143000Y-45720000D03*
%TO.P,J6,3*%
X109413000Y-48260000D03*
%TO.P,J6,4*%
X110683000Y-45720000D03*
%TO.P,J6,5*%
%TO.N,Net-(A1-TX)*%
X111953000Y-48260000D03*
%TO.P,J6,6*%
%TO.N,Net-(A1-A2)*%
X113223000Y-45720000D03*
%TO.P,J6,7*%
%TO.N,Net-(A1-SDA)*%
X114493000Y-48260000D03*
%TO.P,J6,8*%
%TO.N,Net-(A1-A3)*%
X115763000Y-45720000D03*
%TD*%
D14*
%TO.P,J11,*%
%TO.N,*%
X87386000Y-76446000D03*
X98816000Y-76446000D03*
D15*
%TO.P,J11,1*%
%TO.N,Net-(A1-D2)*%
X88656000Y-70096000D03*
D16*
%TO.P,J11,2*%
X89926000Y-67556000D03*
%TO.P,J11,3*%
X91196000Y-70096000D03*
%TO.P,J11,4*%
X92466000Y-67556000D03*
%TO.P,J11,5*%
%TO.N,Net-(A1-MISO)*%
X93736000Y-70096000D03*
%TO.P,J11,6*%
%TO.N,Net-(A1-A0)*%
X95006000Y-67556000D03*
%TO.P,J11,7*%
%TO.N,Net-(A1-RX)*%
X96276000Y-70096000D03*
%TO.P,J11,8*%
%TO.N,Net-(A1-A1)*%
X97546000Y-67556000D03*
%TD*%
D14*
%TO.P,J7,*%
%TO.N,*%
X87386000Y-54610000D03*
X98816000Y-54610000D03*
D15*
%TO.P,J7,1*%
%TO.N,Net-(A1-SCK)*%
X88656000Y-48260000D03*
D16*
%TO.P,J7,2*%
X89926000Y-45720000D03*
%TO.P,J7,3*%
X91196000Y-48260000D03*
%TO.P,J7,4*%
X92466000Y-45720000D03*
%TO.P,J7,5*%
%TO.N,Net-(A1-MISO)*%
X93736000Y-48260000D03*
%TO.P,J7,6*%
%TO.N,Net-(A1-A0)*%
X95006000Y-45720000D03*
%TO.P,J7,7*%
%TO.N,Net-(A1-RX)*%
X96276000Y-48260000D03*
%TO.P,J7,8*%
%TO.N,Net-(A1-A1)*%
X97546000Y-45720000D03*
%TD*%
D14*
%TO.P,J2,*%
%TO.N,*%
X105603000Y-36060000D03*
X117033000Y-36060000D03*
D15*
%TO.P,J2,1*%
%TO.N,Net-(A1-A5)*%
X106873000Y-29710000D03*
D16*
%TO.P,J2,2*%
X108143000Y-27170000D03*
%TO.P,J2,3*%
X109413000Y-29710000D03*
%TO.P,J2,4*%
X110683000Y-27170000D03*
%TO.P,J2,5*%
%TO.N,Net-(A1-TX)*%
X111953000Y-29710000D03*
%TO.P,J2,6*%
%TO.N,Net-(A1-A2)*%
X113223000Y-27170000D03*
%TO.P,J2,7*%
%TO.N,Net-(A1-SDA)*%
X114493000Y-29710000D03*
%TO.P,J2,8*%
%TO.N,Net-(A1-A3)*%
X115763000Y-27170000D03*
%TD*%
D14*
%TO.P,J5,*%
%TO.N,*%
X69611000Y-54610000D03*
X81041000Y-54610000D03*
D15*
%TO.P,J5,1*%
%TO.N,Net-(A1-SCK)*%
X70881000Y-48260000D03*
D16*
%TO.P,J5,2*%
X72151000Y-45720000D03*
%TO.P,J5,3*%
X73421000Y-48260000D03*
%TO.P,J5,4*%
X74691000Y-45720000D03*
%TO.P,J5,5*%
%TO.N,Net-(A1-MISO)*%
X75961000Y-48260000D03*
%TO.P,J5,6*%
%TO.N,Net-(A1-A0)*%
X77231000Y-45720000D03*
%TO.P,J5,7*%
%TO.N,Net-(A1-RX)*%
X78501000Y-48260000D03*
%TO.P,J5,8*%
%TO.N,Net-(A1-A1)*%
X79771000Y-45720000D03*
%TD*%
D14*
%TO.P,J9,*%
%TO.N,*%
X69611000Y-76446000D03*
X81041000Y-76446000D03*
D15*
%TO.P,J9,1*%
%TO.N,Net-(A1-D2)*%
X70881000Y-70096000D03*
D16*
%TO.P,J9,2*%
X72151000Y-67556000D03*
%TO.P,J9,3*%
X73421000Y-70096000D03*
%TO.P,J9,4*%
X74691000Y-67556000D03*
%TO.P,J9,5*%
%TO.N,Net-(A1-MISO)*%
X75961000Y-70096000D03*
%TO.P,J9,6*%
%TO.N,Net-(A1-A0)*%
X77231000Y-67556000D03*
%TO.P,J9,7*%
%TO.N,Net-(A1-RX)*%
X78501000Y-70096000D03*
%TO.P,J9,8*%
%TO.N,Net-(A1-A1)*%
X79771000Y-67556000D03*
%TD*%
D14*
%TO.P,J10,*%
%TO.N,*%
X105603000Y-76446000D03*
X117033000Y-76446000D03*
D15*
%TO.P,J10,1*%
%TO.N,Net-(A1-D0)*%
X106873000Y-70096000D03*
D16*
%TO.P,J10,2*%
X108143000Y-67556000D03*
%TO.P,J10,3*%
X109413000Y-70096000D03*
%TO.P,J10,4*%
X110683000Y-67556000D03*
%TO.P,J10,5*%
%TO.N,Net-(A1-TX)*%
X111953000Y-70096000D03*
%TO.P,J10,6*%
%TO.N,Net-(A1-A2)*%
X113223000Y-67556000D03*
%TO.P,J10,7*%
%TO.N,Net-(A1-SDA)*%
X114493000Y-70096000D03*
%TO.P,J10,8*%
%TO.N,Net-(A1-A3)*%
X115763000Y-67556000D03*
%TD*%
D14*
%TO.P,J12,*%
%TO.N,*%
X123378000Y-76446000D03*
X134808000Y-76446000D03*
D15*
%TO.P,J12,1*%
%TO.N,Net-(A1-D0)*%
X124648000Y-70096000D03*
D16*
%TO.P,J12,2*%
X125918000Y-67556000D03*
%TO.P,J12,3*%
X127188000Y-70096000D03*
%TO.P,J12,4*%
X128458000Y-67556000D03*
%TO.P,J12,5*%
%TO.N,Net-(A1-TX)*%
X129728000Y-70096000D03*
%TO.P,J12,6*%
%TO.N,Net-(A1-A2)*%
X130998000Y-67556000D03*
%TO.P,J12,7*%
%TO.N,Net-(A1-SDA)*%
X132268000Y-70096000D03*
%TO.P,J12,8*%
%TO.N,Net-(A1-A3)*%
X133538000Y-67556000D03*
%TD*%
D14*
%TO.P,J8,*%
%TO.N,*%
X123378000Y-54610000D03*
X134808000Y-54610000D03*
D15*
%TO.P,J8,1*%
%TO.N,Net-(A1-A4)*%
X124648000Y-48260000D03*
D16*
%TO.P,J8,2*%
X125918000Y-45720000D03*
%TO.P,J8,3*%
X127188000Y-48260000D03*
%TO.P,J8,4*%
X128458000Y-45720000D03*
%TO.P,J8,5*%
%TO.N,Net-(A1-TX)*%
X129728000Y-48260000D03*
%TO.P,J8,6*%
%TO.N,Net-(A1-A2)*%
X130998000Y-45720000D03*
%TO.P,J8,7*%
%TO.N,Net-(A1-SDA)*%
X132268000Y-48260000D03*
%TO.P,J8,8*%
%TO.N,Net-(A1-A3)*%
X133538000Y-45720000D03*
%TD*%
D14*
%TO.P,J1,*%
%TO.N,*%
X69611000Y-36060000D03*
X81041000Y-36060000D03*
D15*
%TO.P,J1,1*%
%TO.N,Net-(A1-MOSI)*%
X70881000Y-29710000D03*
D16*
%TO.P,J1,2*%
X72151000Y-27170000D03*
%TO.P,J1,3*%
X73421000Y-29710000D03*
%TO.P,J1,4*%
X74691000Y-27170000D03*
%TO.P,J1,5*%
%TO.N,Net-(A1-MISO)*%
X75961000Y-29710000D03*
%TO.P,J1,6*%
%TO.N,Net-(A1-A0)*%
X77231000Y-27170000D03*
%TO.P,J1,7*%
%TO.N,Net-(A1-RX)*%
X78501000Y-29710000D03*
%TO.P,J1,8*%
%TO.N,Net-(A1-A1)*%
X79771000Y-27170000D03*
%TD*%
D14*
%TO.P,J15,*%
%TO.N,*%
X87386000Y-94996000D03*
X98816000Y-94996000D03*
D15*
%TO.P,J15,1*%
%TO.N,Net-(A1-D1)*%
X88656000Y-88646000D03*
D16*
%TO.P,J15,2*%
X89926000Y-86106000D03*
%TO.P,J15,3*%
X91196000Y-88646000D03*
%TO.P,J15,4*%
X92466000Y-86106000D03*
%TO.P,J15,5*%
%TO.N,Net-(A1-MISO)*%
X93736000Y-88646000D03*
%TO.P,J15,6*%
%TO.N,Net-(A1-A0)*%
X95006000Y-86106000D03*
%TO.P,J15,7*%
%TO.N,Net-(A1-RX)*%
X96276000Y-88646000D03*
%TO.P,J15,8*%
%TO.N,Net-(A1-A1)*%
X97546000Y-86106000D03*
%TD*%
D14*
%TO.P,J13,*%
%TO.N,*%
X69611000Y-94996000D03*
X81041000Y-94996000D03*
D15*
%TO.P,J13,1*%
%TO.N,Net-(A1-D1)*%
X70881000Y-88646000D03*
D16*
%TO.P,J13,2*%
X72151000Y-86106000D03*
%TO.P,J13,3*%
X73421000Y-88646000D03*
%TO.P,J13,4*%
X74691000Y-86106000D03*
%TO.P,J13,5*%
%TO.N,Net-(A1-MISO)*%
X75961000Y-88646000D03*
%TO.P,J13,6*%
%TO.N,Net-(A1-A0)*%
X77231000Y-86106000D03*
%TO.P,J13,7*%
%TO.N,Net-(A1-RX)*%
X78501000Y-88646000D03*
%TO.P,J13,8*%
%TO.N,Net-(A1-A1)*%
X79771000Y-86106000D03*
%TD*%
D14*
%TO.P,J4,*%
%TO.N,*%
X123378000Y-36060000D03*
X134808000Y-36060000D03*
D15*
%TO.P,J4,1*%
%TO.N,Net-(A1-A5)*%
X124648000Y-29710000D03*
D16*
%TO.P,J4,2*%
X125918000Y-27170000D03*
%TO.P,J4,3*%
X127188000Y-29710000D03*
%TO.P,J4,4*%
X128458000Y-27170000D03*
%TO.P,J4,5*%
%TO.N,Net-(A1-TX)*%
X129728000Y-29710000D03*
%TO.P,J4,6*%
%TO.N,Net-(A1-A2)*%
X130998000Y-27170000D03*
%TO.P,J4,7*%
%TO.N,Net-(A1-SDA)*%
X132268000Y-29710000D03*
%TO.P,J4,8*%
%TO.N,Net-(A1-A3)*%
X133538000Y-27170000D03*
%TD*%
D19*
%TO.N,Net-(A1-GND)*%
X155430000Y-60180000D02*
X146685000Y-51435000D01*
X172720000Y-58928000D02*
X171468000Y-60180000D01*
X172720000Y-58928000D02*
X172720000Y-61468000D01*
X171468000Y-60180000D02*
X155430000Y-60180000D01*
%TO.N,Net-(A1-EN)*%
X167005000Y-56515000D02*
X172593000Y-56515000D01*
X172593000Y-56515000D02*
X172720000Y-56388000D01*
%TO.N,Net-(A1-A0)*%
X115195812Y-24365000D02*
X115645812Y-23915000D01*
X139145000Y-59690000D02*
X139700000Y-60245000D01*
X115645812Y-23915000D02*
X138219188Y-23915000D01*
X79586000Y-24815000D02*
X112842208Y-24815000D01*
X144330000Y-59502208D02*
X144330000Y-56330000D01*
X112842208Y-24815000D02*
X113292208Y-24365000D01*
X139145000Y-24840812D02*
X139145000Y-59690000D01*
X113292208Y-24365000D02*
X115195812Y-24365000D01*
X143587208Y-60245000D02*
X144330000Y-59502208D01*
X144330000Y-56330000D02*
X146685000Y-53975000D01*
X77231000Y-27170000D02*
X79586000Y-24815000D01*
X139700000Y-60245000D02*
X143587208Y-60245000D01*
X138219188Y-23915000D02*
X139145000Y-24840812D01*
%TO.N,Net-(A1-A1)*%
X113028604Y-25265000D02*
X113478604Y-24815000D01*
X115382208Y-24815000D02*
X115832208Y-24365000D01*
X97546000Y-27170000D02*
X97546000Y-26144000D01*
X97546000Y-26144000D02*
X98425000Y-25265000D01*
X80846000Y-26095000D02*
X96471000Y-26095000D01*
X138032792Y-24365000D02*
X138695000Y-25027208D01*
X113478604Y-24815000D02*
X115382208Y-24815000D01*
X79771000Y-27170000D02*
X80846000Y-26095000D01*
X79771000Y-27170000D02*
X79771000Y-26139000D01*
X115832208Y-24365000D02*
X138032792Y-24365000D01*
X98425000Y-25265000D02*
X113028604Y-25265000D01*
X144780000Y-59688604D02*
X144780000Y-57785000D01*
X144780000Y-57785000D02*
X146050000Y-56515000D01*
X96471000Y-26095000D02*
X97546000Y-27170000D01*
X143773604Y-60695000D02*
X144780000Y-59688604D01*
X79771000Y-26139000D02*
X80645000Y-25265000D01*
X139437792Y-60695000D02*
X143773604Y-60695000D01*
X98425000Y-25265000D02*
X99060000Y-25265000D01*
X80645000Y-25265000D02*
X98425000Y-25265000D01*
X138695000Y-59952208D02*
X139437792Y-60695000D01*
X138695000Y-25027208D02*
X138695000Y-59952208D01*
%TO.N,Net-(A1-A2)*%
X139251396Y-61145000D02*
X143960000Y-61145000D01*
X138245000Y-60138604D02*
X139251396Y-61145000D01*
X137846396Y-24815000D02*
X138245000Y-25213604D01*
X115568604Y-25265000D02*
X116018604Y-24815000D01*
X116018604Y-24815000D02*
X137846396Y-24815000D01*
X113665000Y-25265000D02*
X115568604Y-25265000D01*
X143960000Y-61145000D02*
X146050000Y-59055000D01*
X138245000Y-25213604D02*
X138245000Y-60138604D01*
X113223000Y-27170000D02*
X113223000Y-25707000D01*
X113223000Y-25707000D02*
X113665000Y-25265000D01*
%TO.N,Net-(A1-A3)*%
X133538000Y-27170000D02*
X132463000Y-26095000D01*
X133538000Y-25712000D02*
X133985000Y-25265000D01*
X132463000Y-26095000D02*
X116838000Y-26095000D01*
X139065000Y-61595000D02*
X146685000Y-61595000D01*
X133985000Y-25265000D02*
X135255000Y-25265000D01*
X116838000Y-26095000D02*
X115763000Y-27170000D01*
X137660000Y-25265000D02*
X137795000Y-25400000D01*
X137795000Y-60325000D02*
X139065000Y-61595000D01*
X116205000Y-25265000D02*
X135255000Y-25265000D01*
X133538000Y-27170000D02*
X133538000Y-25712000D01*
X135255000Y-25265000D02*
X137660000Y-25265000D01*
X115763000Y-27170000D02*
X115763000Y-25707000D01*
X115763000Y-25707000D02*
X116205000Y-25265000D01*
X137795000Y-25400000D02*
X137795000Y-60325000D01*
%TO.N,Net-(A1-A4)*%
X123573000Y-47185000D02*
X124648000Y-48260000D01*
X102870000Y-61907000D02*
X103058000Y-62095000D01*
X106873000Y-48260000D02*
X103531500Y-48260000D01*
X107948000Y-47185000D02*
X123573000Y-47185000D01*
X106873000Y-48260000D02*
X107948000Y-47185000D01*
X102870000Y-48921500D02*
X102870000Y-61907000D01*
X103531500Y-48260000D02*
X102870000Y-48921500D01*
X103058000Y-62095000D02*
X144645000Y-62095000D01*
X144645000Y-62095000D02*
X146685000Y-64135000D01*
%TO.N,Net-(A1-A5)*%
X107948000Y-30785000D02*
X106873000Y-29710000D01*
X103058000Y-29710000D02*
X102870000Y-29898000D01*
X106873000Y-29710000D02*
X103058000Y-29710000D01*
X102420000Y-48735104D02*
X102420000Y-62093396D01*
X102870000Y-29898000D02*
X102870000Y-48285104D01*
X102420000Y-62093396D02*
X102871604Y-62545000D01*
X102870000Y-48285104D02*
X102420000Y-48735104D01*
X102871604Y-62545000D02*
X141931168Y-62545000D01*
X141931168Y-62545000D02*
X146061168Y-66675000D01*
X123573000Y-30785000D02*
X107948000Y-30785000D01*
X124648000Y-29710000D02*
X123573000Y-30785000D01*
%TO.N,Net-(A1-SCK)*%
X67175000Y-48260000D02*
X66675000Y-48760000D01*
X145390000Y-68555000D02*
X146050000Y-69215000D01*
X70881000Y-48260000D02*
X71956000Y-47185000D01*
X102685208Y-62995000D02*
X141744772Y-62995000D01*
X67310000Y-62095000D02*
X101785208Y-62095000D01*
X101785208Y-62095000D02*
X102685208Y-62995000D01*
X145390000Y-66640228D02*
X145390000Y-68555000D01*
X66675000Y-61460000D02*
X67310000Y-62095000D01*
X66675000Y-48760000D02*
X66675000Y-61460000D01*
X70881000Y-48260000D02*
X67175000Y-48260000D01*
X87581000Y-47185000D02*
X88656000Y-48260000D01*
X71956000Y-47185000D02*
X87581000Y-47185000D01*
X141744772Y-62995000D02*
X145390000Y-66640228D01*
%TO.N,Net-(A1-MOSI)*%
X66225000Y-61646396D02*
X67123604Y-62545000D01*
X102553812Y-63500000D02*
X141613376Y-63500000D01*
X67123604Y-62545000D02*
X101598812Y-62545000D01*
X87581000Y-30785000D02*
X71956000Y-30785000D01*
X66225000Y-48573604D02*
X66225000Y-61646396D01*
X144940000Y-66826624D02*
X144940000Y-70010000D01*
X71956000Y-30785000D02*
X70881000Y-29710000D01*
X88656000Y-29710000D02*
X87581000Y-30785000D01*
X66675000Y-30345000D02*
X66675000Y-48123604D01*
X141613376Y-63500000D02*
X144940000Y-66826624D01*
X66675000Y-48123604D02*
X66225000Y-48573604D01*
X67310000Y-29710000D02*
X66675000Y-30345000D01*
X144940000Y-70010000D02*
X146685000Y-71755000D01*
X70881000Y-29710000D02*
X67310000Y-29710000D01*
X101598812Y-62545000D02*
X102553812Y-63500000D01*
%TO.N,Net-(A1-MISO)*%
X144490000Y-72100000D02*
X146685000Y-74295000D01*
X113225324Y-64760604D02*
X113670208Y-64760604D01*
X144490000Y-67013020D02*
X144490000Y-72100000D01*
X113670208Y-64760604D02*
X114375812Y-64055000D01*
X77676720Y-65590000D02*
X112395928Y-65590000D01*
X141531980Y-64055000D02*
X144490000Y-67013020D01*
X75961000Y-67305720D02*
X77676720Y-65590000D01*
X114375812Y-64055000D02*
X141531980Y-64055000D01*
X75961000Y-70096000D02*
X75961000Y-67305720D01*
X112395928Y-65590000D02*
X113225324Y-64760604D01*
%TO.N,Net-(A1-RX)*%
X112582324Y-66040000D02*
X113411720Y-65210604D01*
X78740000Y-66040000D02*
X97155000Y-66040000D01*
X79576000Y-89721000D02*
X95201000Y-89721000D01*
X113856604Y-65210604D02*
X114562208Y-64505000D01*
X144040000Y-74190000D02*
X146685000Y-76835000D01*
X97155000Y-66040000D02*
X112582324Y-66040000D01*
X96276000Y-70096000D02*
X96276000Y-66284000D01*
X141345584Y-64505000D02*
X144040000Y-67199416D01*
X78501000Y-66279000D02*
X78740000Y-66040000D01*
X114562208Y-64505000D02*
X141345584Y-64505000D01*
X96520000Y-66040000D02*
X97155000Y-66040000D01*
X78501000Y-88646000D02*
X79576000Y-89721000D01*
X78501000Y-70096000D02*
X78501000Y-66279000D01*
X113411720Y-65210604D02*
X113856604Y-65210604D01*
X95201000Y-89721000D02*
X96276000Y-88646000D01*
X144040000Y-67199416D02*
X144040000Y-74190000D01*
X96276000Y-66284000D02*
X96520000Y-66040000D01*
%TO.N,Net-(A1-TX)*%
X111953000Y-67305720D02*
X113598116Y-65660604D01*
X111953000Y-70096000D02*
X111953000Y-67305720D01*
X143590000Y-67385812D02*
X143590000Y-76280000D01*
X113598116Y-65660604D02*
X114043000Y-65660604D01*
X141159188Y-64955000D02*
X143590000Y-67385812D01*
X114748604Y-64955000D02*
X141159188Y-64955000D01*
X114043000Y-65660604D02*
X114748604Y-64955000D01*
X143590000Y-76280000D02*
X146685000Y-79375000D01*
%TO.N,Net-(A1-SDA)*%
X167005000Y-81915000D02*
X168910000Y-83820000D01*
X143024000Y-85614416D02*
X143024000Y-67456208D01*
X114935000Y-65405000D02*
X135255000Y-65405000D01*
X115568000Y-89721000D02*
X131193000Y-89721000D01*
X167005000Y-88900000D02*
X146309584Y-88900000D01*
X168910000Y-83820000D02*
X168910000Y-86995000D01*
X114493000Y-88646000D02*
X115568000Y-89721000D01*
X146309584Y-88900000D02*
X143024000Y-85614416D01*
X114493000Y-70096000D02*
X114493000Y-65847000D01*
X132715000Y-65405000D02*
X135255000Y-65405000D01*
X132268000Y-65852000D02*
X132715000Y-65405000D01*
X140972792Y-65405000D02*
X135255000Y-65405000D01*
X143024000Y-67456208D02*
X140972792Y-65405000D01*
X168910000Y-86995000D02*
X167005000Y-88900000D01*
X114493000Y-65847000D02*
X114935000Y-65405000D01*
X132268000Y-70096000D02*
X132268000Y-65852000D01*
X131193000Y-89721000D02*
X132268000Y-88646000D01*
%TO.N,Net-(A1-SCL)*%
X169360000Y-81730000D02*
X169360000Y-87181396D01*
X137795000Y-101600000D02*
X137160000Y-102235000D01*
X137160000Y-102235000D02*
X103058000Y-102235000D01*
X102870000Y-89535000D02*
X103759000Y-88646000D01*
X142574000Y-67642604D02*
X140786396Y-65855000D01*
X139248604Y-65855000D02*
X137795000Y-67308604D01*
X103058000Y-102235000D02*
X102870000Y-102047000D01*
X137795000Y-67308604D02*
X137795000Y-101600000D01*
X107948000Y-87571000D02*
X123573000Y-87571000D01*
X167191396Y-89350000D02*
X146558000Y-89350000D01*
X146501396Y-89350000D02*
X146123188Y-89350000D01*
X102870000Y-102047000D02*
X102870000Y-89535000D01*
X142574000Y-85800812D02*
X142574000Y-67642604D01*
X140786396Y-65855000D02*
X139248604Y-65855000D01*
X106873000Y-88646000D02*
X107948000Y-87571000D01*
X146123188Y-89350000D02*
X142574000Y-85800812D01*
X123573000Y-87571000D02*
X124648000Y-88646000D01*
X169360000Y-87181396D02*
X167191396Y-89350000D01*
X167005000Y-79375000D02*
X169360000Y-81730000D01*
X103759000Y-88646000D02*
X106873000Y-88646000D01*
%TO.N,Net-(A1-D0)*%
X124648000Y-70096000D02*
X123573000Y-71171000D01*
X102870000Y-88898604D02*
X102420000Y-89348604D01*
X102871604Y-102685000D02*
X137346396Y-102685000D01*
X107948000Y-71171000D02*
X106873000Y-70096000D01*
X103259000Y-70096000D02*
X102870000Y-70485000D01*
X169810000Y-87367792D02*
X169810000Y-80275000D01*
X142124000Y-67829000D02*
X142124000Y-85987208D01*
X102420000Y-102233396D02*
X102871604Y-102685000D01*
X139435000Y-66305000D02*
X140600000Y-66305000D01*
X142124000Y-85987208D02*
X145936792Y-89800000D01*
X169810000Y-80275000D02*
X167005000Y-77470000D01*
X140600000Y-66305000D02*
X142124000Y-67829000D01*
X137346396Y-102685000D02*
X138245000Y-101786396D01*
X102420000Y-89348604D02*
X102420000Y-102233396D01*
X167005000Y-77470000D02*
X167005000Y-76835000D01*
X102870000Y-70485000D02*
X102870000Y-88898604D01*
X138245000Y-101786396D02*
X138245000Y-67495000D01*
X123573000Y-71171000D02*
X107948000Y-71171000D01*
X145936792Y-89800000D02*
X167377792Y-89800000D01*
X138245000Y-67495000D02*
X139435000Y-66305000D01*
X167377792Y-89800000D02*
X169810000Y-87367792D01*
X106873000Y-70096000D02*
X103259000Y-70096000D01*
%TO.N,Net-(A1-D1)*%
X70881000Y-88646000D02*
X71956000Y-87571000D01*
X101785208Y-102235000D02*
X67310000Y-102235000D01*
X137532792Y-103135000D02*
X102685208Y-103135000D01*
X170260000Y-87554188D02*
X167564188Y-90250000D01*
X87581000Y-87571000D02*
X88656000Y-88646000D01*
X145750396Y-90250000D02*
X141674000Y-86173604D01*
X170260000Y-77550000D02*
X170260000Y-87554188D01*
X138695000Y-101972792D02*
X137532792Y-103135000D01*
X140413604Y-66755000D02*
X139621396Y-66755000D01*
X141674000Y-86173604D02*
X141674000Y-68015396D01*
X67310000Y-102235000D02*
X66675000Y-101600000D01*
X66675000Y-88900000D02*
X66929000Y-88646000D01*
X102685208Y-103135000D02*
X101785208Y-102235000D01*
X138695000Y-67681396D02*
X138695000Y-101972792D01*
X66675000Y-101600000D02*
X66675000Y-88900000D01*
X141674000Y-68015396D02*
X140413604Y-66755000D01*
X167005000Y-74295000D02*
X170260000Y-77550000D01*
X66929000Y-88646000D02*
X70881000Y-88646000D01*
X71956000Y-87571000D02*
X87581000Y-87571000D01*
X167564188Y-90250000D02*
X145750396Y-90250000D01*
X139621396Y-66755000D02*
X138695000Y-67681396D01*
%TO.N,Net-(A1-D2)*%
X140227208Y-67205000D02*
X139807792Y-67205000D01*
X167750584Y-90700000D02*
X145564000Y-90700000D01*
X66675000Y-70485000D02*
X67064000Y-70096000D01*
X66225000Y-101786396D02*
X66225000Y-88713604D01*
X139145000Y-67867792D02*
X139145000Y-102159188D01*
X67123604Y-102685000D02*
X66225000Y-101786396D01*
X66225000Y-88713604D02*
X66675000Y-88263604D01*
X67064000Y-70096000D02*
X70881000Y-70096000D01*
X139807792Y-67205000D02*
X139145000Y-67867792D01*
X139145000Y-102159188D02*
X137719188Y-103585000D01*
X70881000Y-70096000D02*
X71956000Y-71171000D01*
X102498812Y-103585000D02*
X101598812Y-102685000D01*
X141224000Y-68201792D02*
X140227208Y-67205000D01*
X145564000Y-90700000D02*
X141224000Y-86360000D01*
X101598812Y-102685000D02*
X67123604Y-102685000D01*
X66675000Y-88263604D02*
X66675000Y-70485000D01*
X170710000Y-87740584D02*
X167750584Y-90700000D01*
X71956000Y-71171000D02*
X87581000Y-71171000D01*
X170710000Y-75460000D02*
X170710000Y-87740584D01*
X137719188Y-103585000D02*
X102498812Y-103585000D01*
X87581000Y-71171000D02*
X88656000Y-70096000D01*
X167005000Y-71755000D02*
X170710000Y-75460000D01*
X141224000Y-86360000D02*
X141224000Y-68201792D01*
%TD*%
M02*
