M48
; DRILL file {KiCad 7.0.10} date Mon 05 Feb 2024 02:26:38 PM MST
; FORMAT={-:-/ absolute / inch / decimal}
; #@! TF.CreationDate,2024-02-05T14:26:38-07:00
; #@! TF.GenerationSoftware,Kicad,Pcbnew,7.0.10
; #@! TF.FileFunction,NonPlated,1,2,NPTH
FMAT,2
INCH
; #@! TA.AperFunction,NonPlated,NPTH,ComponentDrill
T1C0.1358
%
G90
G05
T1
X2.7406Y-1.4197
X2.7406Y-2.15
X2.7406Y-3.0097
X2.7406Y-3.74
X3.1906Y-1.4197
X3.1906Y-2.15
X3.1906Y-3.0097
X3.1906Y-3.74
X3.4404Y-1.4197
X3.4404Y-2.15
X3.4404Y-3.0097
X3.4404Y-3.74
X3.8904Y-1.4197
X3.8904Y-2.15
X3.8904Y-3.0097
X3.8904Y-3.74
X4.1576Y-1.4197
X4.1576Y-2.15
X4.1576Y-3.0097
X4.1576Y-3.74
X4.6076Y-1.4197
X4.6076Y-2.15
X4.6076Y-3.0097
X4.6076Y-3.74
X4.8574Y-1.4197
X4.8574Y-2.15
X4.8574Y-3.0097
X4.8574Y-3.74
X5.3074Y-1.4197
X5.3074Y-2.15
X5.3074Y-3.0097
X5.3074Y-3.74
M30
