M48
; DRILL file {KiCad 7.0.10} date Mon 05 Feb 2024 02:26:38 PM MST
; FORMAT={-:-/ absolute / inch / decimal}
; #@! TF.CreationDate,2024-02-05T14:26:38-07:00
; #@! TF.GenerationSoftware,Kicad,Pcbnew,7.0.10
; #@! TF.FileFunction,Plated,1,2,PTH
FMAT,2
INCH
; #@! TA.AperFunction,Plated,PTH,ComponentDrill
T1C0.0315
; #@! TA.AperFunction,Plated,PTH,ComponentDrill
T2C0.0354
; #@! TA.AperFunction,Plated,PTH,ComponentDrill
T3C0.0394
%
G90
G05
T1
X5.775Y-1.725
X5.775Y-1.825
X5.775Y-1.925
X5.775Y-2.025
X5.775Y-2.125
X5.775Y-2.225
X5.775Y-2.325
X5.775Y-2.425
X5.775Y-2.525
X5.775Y-2.625
X5.775Y-2.725
X5.775Y-2.825
X5.775Y-2.925
X5.775Y-3.025
X5.775Y-3.125
X5.775Y-3.225
X6.575Y-2.125
X6.575Y-2.225
X6.575Y-2.325
X6.575Y-2.425
X6.575Y-2.525
X6.575Y-2.625
X6.575Y-2.725
X6.575Y-2.825
X6.575Y-2.925
X6.575Y-3.025
X6.575Y-3.125
X6.575Y-3.225
T2
X2.7906Y-1.1697
X2.7906Y-1.9
X2.7906Y-2.7597
X2.7906Y-3.49
X2.8406Y-1.0697
X2.8406Y-1.8
X2.8406Y-2.6597
X2.8406Y-3.39
X2.8906Y-1.1697
X2.8906Y-1.9
X2.8906Y-2.7597
X2.8906Y-3.49
X2.9406Y-1.0697
X2.9406Y-1.8
X2.9406Y-2.6597
X2.9406Y-3.39
X2.9906Y-1.1697
X2.9906Y-1.9
X2.9906Y-2.7597
X2.9906Y-3.49
X3.0406Y-1.0697
X3.0406Y-1.8
X3.0406Y-2.6597
X3.0406Y-3.39
X3.0906Y-1.1697
X3.0906Y-1.9
X3.0906Y-2.7597
X3.0906Y-3.49
X3.1406Y-1.0697
X3.1406Y-1.8
X3.1406Y-2.6597
X3.1406Y-3.39
X3.4904Y-1.1697
X3.4904Y-1.9
X3.4904Y-2.7597
X3.4904Y-3.49
X3.5404Y-1.0697
X3.5404Y-1.8
X3.5404Y-2.6597
X3.5404Y-3.39
X3.5904Y-1.1697
X3.5904Y-1.9
X3.5904Y-2.7597
X3.5904Y-3.49
X3.6404Y-1.0697
X3.6404Y-1.8
X3.6404Y-2.6597
X3.6404Y-3.39
X3.6904Y-1.1697
X3.6904Y-1.9
X3.6904Y-2.7597
X3.6904Y-3.49
X3.7404Y-1.0697
X3.7404Y-1.8
X3.7404Y-2.6597
X3.7404Y-3.39
X3.7904Y-1.1697
X3.7904Y-1.9
X3.7904Y-2.7597
X3.7904Y-3.49
X3.8404Y-1.0697
X3.8404Y-1.8
X3.8404Y-2.6597
X3.8404Y-3.39
X4.2076Y-1.1697
X4.2076Y-1.9
X4.2076Y-2.7597
X4.2076Y-3.49
X4.2576Y-1.0697
X4.2576Y-1.8
X4.2576Y-2.6597
X4.2576Y-3.39
X4.3076Y-1.1697
X4.3076Y-1.9
X4.3076Y-2.7597
X4.3076Y-3.49
X4.3576Y-1.0697
X4.3576Y-1.8
X4.3576Y-2.6597
X4.3576Y-3.39
X4.4076Y-1.1697
X4.4076Y-1.9
X4.4076Y-2.7597
X4.4076Y-3.49
X4.4576Y-1.0697
X4.4576Y-1.8
X4.4576Y-2.6597
X4.4576Y-3.39
X4.5076Y-1.1697
X4.5076Y-1.9
X4.5076Y-2.7597
X4.5076Y-3.49
X4.5576Y-1.0697
X4.5576Y-1.8
X4.5576Y-2.6597
X4.5576Y-3.39
X4.9074Y-1.1697
X4.9074Y-1.9
X4.9074Y-2.7597
X4.9074Y-3.49
X4.9574Y-1.0697
X4.9574Y-1.8
X4.9574Y-2.6597
X4.9574Y-3.39
X5.0074Y-1.1697
X5.0074Y-1.9
X5.0074Y-2.7597
X5.0074Y-3.49
X5.0574Y-1.0697
X5.0574Y-1.8
X5.0574Y-2.6597
X5.0574Y-3.39
X5.1074Y-1.1697
X5.1074Y-1.9
X5.1074Y-2.7597
X5.1074Y-3.49
X5.1574Y-1.0697
X5.1574Y-1.8
X5.1574Y-2.6597
X5.1574Y-3.39
X5.2074Y-1.1697
X5.2074Y-1.9
X5.2074Y-2.7597
X5.2074Y-3.49
X5.2574Y-1.0697
X5.2574Y-1.8
X5.2574Y-2.6597
X5.2574Y-3.39
T3
X6.8Y-2.22
X6.8Y-2.32
X6.8Y-2.42
M30
