%TF.GenerationSoftware,KiCad,Pcbnew,7.0.10*%
%TF.CreationDate,2024-02-05T14:26:27-07:00*%
%TF.ProjectId,pcbdraft-1,70636264-7261-4667-942d-312e6b696361,rev?*%
%TF.SameCoordinates,Original*%
%TF.FileFunction,Soldermask,Top*%
%TF.FilePolarity,Negative*%
%FSLAX46Y46*%
G04 Gerber Fmt 4.6, Leading zero omitted, Abs format (unit mm)*
G04 Created by KiCad (PCBNEW 7.0.10) date 2024-02-05 14:26:27*
%MOMM*%
%LPD*%
G01*
G04 APERTURE LIST*
%ADD10R,1.700000X1.700000*%
%ADD11O,1.700000X1.700000*%
%ADD12C,3.650000*%
%ADD13R,1.500000X1.500000*%
%ADD14C,1.500000*%
%ADD15R,1.600000X1.600000*%
%ADD16C,1.600000*%
G04 APERTURE END LIST*
D10*
%TO.C,SW1*%
X172720000Y-56388000D03*
D11*
X172720000Y-58928000D03*
X172720000Y-61468000D03*
%TD*%
D12*
%TO.C,J14*%
X105603000Y-94996000D03*
X117033000Y-94996000D03*
D13*
X106873000Y-88646000D03*
D14*
X108143000Y-86106000D03*
X109413000Y-88646000D03*
X110683000Y-86106000D03*
X111953000Y-88646000D03*
X113223000Y-86106000D03*
X114493000Y-88646000D03*
X115763000Y-86106000D03*
%TD*%
D12*
%TO.C,J3*%
X87386000Y-36060000D03*
X98816000Y-36060000D03*
D13*
X88656000Y-29710000D03*
D14*
X89926000Y-27170000D03*
X91196000Y-29710000D03*
X92466000Y-27170000D03*
X93736000Y-29710000D03*
X95006000Y-27170000D03*
X96276000Y-29710000D03*
X97546000Y-27170000D03*
%TD*%
D15*
%TO.C,A1*%
X146685000Y-43815000D03*
D16*
X146685000Y-46355000D03*
X146685000Y-48895000D03*
X146685000Y-51435000D03*
X146685000Y-53975000D03*
X146685000Y-56515000D03*
X146685000Y-59055000D03*
X146685000Y-61595000D03*
X146685000Y-64135000D03*
X146685000Y-66675000D03*
X146685000Y-69215000D03*
X146685000Y-71755000D03*
X146685000Y-74295000D03*
X146685000Y-76835000D03*
X146685000Y-79375000D03*
X146685000Y-81915000D03*
X167005000Y-81915000D03*
X167005000Y-79375000D03*
X167005000Y-76835000D03*
X167005000Y-74295000D03*
X167005000Y-71755000D03*
X167005000Y-69215000D03*
X167005000Y-66675000D03*
X167005000Y-64135000D03*
X167005000Y-61595000D03*
X167005000Y-59055000D03*
X167005000Y-56515000D03*
X167005000Y-53975000D03*
%TD*%
D12*
%TO.C,J16*%
X123378000Y-94996000D03*
X134808000Y-94996000D03*
D13*
X124648000Y-88646000D03*
D14*
X125918000Y-86106000D03*
X127188000Y-88646000D03*
X128458000Y-86106000D03*
X129728000Y-88646000D03*
X130998000Y-86106000D03*
X132268000Y-88646000D03*
X133538000Y-86106000D03*
%TD*%
D12*
%TO.C,J6*%
X105603000Y-54610000D03*
X117033000Y-54610000D03*
D13*
X106873000Y-48260000D03*
D14*
X108143000Y-45720000D03*
X109413000Y-48260000D03*
X110683000Y-45720000D03*
X111953000Y-48260000D03*
X113223000Y-45720000D03*
X114493000Y-48260000D03*
X115763000Y-45720000D03*
%TD*%
D12*
%TO.C,J11*%
X87386000Y-76446000D03*
X98816000Y-76446000D03*
D13*
X88656000Y-70096000D03*
D14*
X89926000Y-67556000D03*
X91196000Y-70096000D03*
X92466000Y-67556000D03*
X93736000Y-70096000D03*
X95006000Y-67556000D03*
X96276000Y-70096000D03*
X97546000Y-67556000D03*
%TD*%
D12*
%TO.C,J7*%
X87386000Y-54610000D03*
X98816000Y-54610000D03*
D13*
X88656000Y-48260000D03*
D14*
X89926000Y-45720000D03*
X91196000Y-48260000D03*
X92466000Y-45720000D03*
X93736000Y-48260000D03*
X95006000Y-45720000D03*
X96276000Y-48260000D03*
X97546000Y-45720000D03*
%TD*%
D12*
%TO.C,J2*%
X105603000Y-36060000D03*
X117033000Y-36060000D03*
D13*
X106873000Y-29710000D03*
D14*
X108143000Y-27170000D03*
X109413000Y-29710000D03*
X110683000Y-27170000D03*
X111953000Y-29710000D03*
X113223000Y-27170000D03*
X114493000Y-29710000D03*
X115763000Y-27170000D03*
%TD*%
D12*
%TO.C,J5*%
X69611000Y-54610000D03*
X81041000Y-54610000D03*
D13*
X70881000Y-48260000D03*
D14*
X72151000Y-45720000D03*
X73421000Y-48260000D03*
X74691000Y-45720000D03*
X75961000Y-48260000D03*
X77231000Y-45720000D03*
X78501000Y-48260000D03*
X79771000Y-45720000D03*
%TD*%
D12*
%TO.C,J9*%
X69611000Y-76446000D03*
X81041000Y-76446000D03*
D13*
X70881000Y-70096000D03*
D14*
X72151000Y-67556000D03*
X73421000Y-70096000D03*
X74691000Y-67556000D03*
X75961000Y-70096000D03*
X77231000Y-67556000D03*
X78501000Y-70096000D03*
X79771000Y-67556000D03*
%TD*%
D12*
%TO.C,J10*%
X105603000Y-76446000D03*
X117033000Y-76446000D03*
D13*
X106873000Y-70096000D03*
D14*
X108143000Y-67556000D03*
X109413000Y-70096000D03*
X110683000Y-67556000D03*
X111953000Y-70096000D03*
X113223000Y-67556000D03*
X114493000Y-70096000D03*
X115763000Y-67556000D03*
%TD*%
D12*
%TO.C,J12*%
X123378000Y-76446000D03*
X134808000Y-76446000D03*
D13*
X124648000Y-70096000D03*
D14*
X125918000Y-67556000D03*
X127188000Y-70096000D03*
X128458000Y-67556000D03*
X129728000Y-70096000D03*
X130998000Y-67556000D03*
X132268000Y-70096000D03*
X133538000Y-67556000D03*
%TD*%
D12*
%TO.C,J8*%
X123378000Y-54610000D03*
X134808000Y-54610000D03*
D13*
X124648000Y-48260000D03*
D14*
X125918000Y-45720000D03*
X127188000Y-48260000D03*
X128458000Y-45720000D03*
X129728000Y-48260000D03*
X130998000Y-45720000D03*
X132268000Y-48260000D03*
X133538000Y-45720000D03*
%TD*%
D12*
%TO.C,J1*%
X69611000Y-36060000D03*
X81041000Y-36060000D03*
D13*
X70881000Y-29710000D03*
D14*
X72151000Y-27170000D03*
X73421000Y-29710000D03*
X74691000Y-27170000D03*
X75961000Y-29710000D03*
X77231000Y-27170000D03*
X78501000Y-29710000D03*
X79771000Y-27170000D03*
%TD*%
D12*
%TO.C,J15*%
X87386000Y-94996000D03*
X98816000Y-94996000D03*
D13*
X88656000Y-88646000D03*
D14*
X89926000Y-86106000D03*
X91196000Y-88646000D03*
X92466000Y-86106000D03*
X93736000Y-88646000D03*
X95006000Y-86106000D03*
X96276000Y-88646000D03*
X97546000Y-86106000D03*
%TD*%
D12*
%TO.C,J13*%
X69611000Y-94996000D03*
X81041000Y-94996000D03*
D13*
X70881000Y-88646000D03*
D14*
X72151000Y-86106000D03*
X73421000Y-88646000D03*
X74691000Y-86106000D03*
X75961000Y-88646000D03*
X77231000Y-86106000D03*
X78501000Y-88646000D03*
X79771000Y-86106000D03*
%TD*%
D12*
%TO.C,J4*%
X123378000Y-36060000D03*
X134808000Y-36060000D03*
D13*
X124648000Y-29710000D03*
D14*
X125918000Y-27170000D03*
X127188000Y-29710000D03*
X128458000Y-27170000D03*
X129728000Y-29710000D03*
X130998000Y-27170000D03*
X132268000Y-29710000D03*
X133538000Y-27170000D03*
%TD*%
M02*
