%TF.GenerationSoftware,KiCad,Pcbnew,7.0.10*%
%TF.CreationDate,2024-02-05T14:27:58-07:00*%
%TF.ProjectId,pcbdraft-1,70636264-7261-4667-942d-312e6b696361,rev?*%
%TF.SameCoordinates,Original*%
%TF.FileFunction,Copper,L2,Bot*%
%TF.FilePolarity,Positive*%
%FSLAX46Y46*%
G04 Gerber Fmt 4.6, Leading zero omitted, Abs format (unit mm)*
G04 Created by KiCad (PCBNEW 7.0.10) date 2024-02-05 14:27:58*
%MOMM*%
%LPD*%
G01*
G04 APERTURE LIST*
%TA.AperFunction,ComponentPad*%
%ADD10R,1.700000X1.700000*%
%TD*%
%TA.AperFunction,ComponentPad*%
%ADD11O,1.700000X1.700000*%
%TD*%
%TA.AperFunction,WasherPad*%
%ADD12C,3.650000*%
%TD*%
%TA.AperFunction,ComponentPad*%
%ADD13R,1.500000X1.500000*%
%TD*%
%TA.AperFunction,ComponentPad*%
%ADD14C,1.500000*%
%TD*%
%TA.AperFunction,ComponentPad*%
%ADD15R,1.600000X1.600000*%
%TD*%
%TA.AperFunction,ComponentPad*%
%ADD16C,1.600000*%
%TD*%
%TA.AperFunction,Conductor*%
%ADD17C,0.250000*%
%TD*%
G04 APERTURE END LIST*
D10*
%TO.P,SW1,1,A*%
%TO.N,Net-(A1-EN)*%
X172720000Y-56388000D03*
D11*
%TO.P,SW1,2,B*%
%TO.N,Net-(A1-GND)*%
X172720000Y-58928000D03*
%TO.P,SW1,3,C*%
X172720000Y-61468000D03*
%TD*%
D12*
%TO.P,J14,*%
%TO.N,*%
X105603000Y-94996000D03*
X117033000Y-94996000D03*
D13*
%TO.P,J14,1*%
%TO.N,Net-(A1-SCL)*%
X106873000Y-88646000D03*
D14*
%TO.P,J14,2*%
X108143000Y-86106000D03*
%TO.P,J14,3*%
X109413000Y-88646000D03*
%TO.P,J14,4*%
X110683000Y-86106000D03*
%TO.P,J14,5*%
%TO.N,Net-(A1-TX)*%
X111953000Y-88646000D03*
%TO.P,J14,6*%
%TO.N,Net-(A1-A2)*%
X113223000Y-86106000D03*
%TO.P,J14,7*%
%TO.N,Net-(A1-SDA)*%
X114493000Y-88646000D03*
%TO.P,J14,8*%
%TO.N,Net-(A1-A3)*%
X115763000Y-86106000D03*
%TD*%
D12*
%TO.P,J3,*%
%TO.N,*%
X87386000Y-36060000D03*
X98816000Y-36060000D03*
D13*
%TO.P,J3,1*%
%TO.N,Net-(A1-MOSI)*%
X88656000Y-29710000D03*
D14*
%TO.P,J3,2*%
X89926000Y-27170000D03*
%TO.P,J3,3*%
X91196000Y-29710000D03*
%TO.P,J3,4*%
X92466000Y-27170000D03*
%TO.P,J3,5*%
%TO.N,Net-(A1-MISO)*%
X93736000Y-29710000D03*
%TO.P,J3,6*%
%TO.N,Net-(A1-A0)*%
X95006000Y-27170000D03*
%TO.P,J3,7*%
%TO.N,Net-(A1-RX)*%
X96276000Y-29710000D03*
%TO.P,J3,8*%
%TO.N,Net-(A1-A1)*%
X97546000Y-27170000D03*
%TD*%
D15*
%TO.P,A1,1,~{RESET}*%
%TO.N,unconnected-(A1-~{RESET}-Pad1)*%
X146685000Y-43815000D03*
D16*
%TO.P,A1,2,3V3*%
%TO.N,unconnected-(A1-3V3-Pad2)*%
X146685000Y-46355000D03*
%TO.P,A1,3,AREF*%
%TO.N,unconnected-(A1-AREF-Pad3)*%
X146685000Y-48895000D03*
%TO.P,A1,4,GND*%
%TO.N,Net-(A1-GND)*%
X146685000Y-51435000D03*
%TO.P,A1,5,A0*%
%TO.N,Net-(A1-A0)*%
X146685000Y-53975000D03*
%TO.P,A1,6,A1*%
%TO.N,Net-(A1-A1)*%
X146685000Y-56515000D03*
%TO.P,A1,7,A2*%
%TO.N,Net-(A1-A2)*%
X146685000Y-59055000D03*
%TO.P,A1,8,A3*%
%TO.N,Net-(A1-A3)*%
X146685000Y-61595000D03*
%TO.P,A1,9,A4*%
%TO.N,Net-(A1-A4)*%
X146685000Y-64135000D03*
%TO.P,A1,10,A5*%
%TO.N,Net-(A1-A5)*%
X146685000Y-66675000D03*
%TO.P,A1,11,SCK*%
%TO.N,Net-(A1-SCK)*%
X146685000Y-69215000D03*
%TO.P,A1,12,MOSI*%
%TO.N,Net-(A1-MOSI)*%
X146685000Y-71755000D03*
%TO.P,A1,13,MISO*%
%TO.N,Net-(A1-MISO)*%
X146685000Y-74295000D03*
%TO.P,A1,14,RX*%
%TO.N,Net-(A1-RX)*%
X146685000Y-76835000D03*
%TO.P,A1,15,TX*%
%TO.N,Net-(A1-TX)*%
X146685000Y-79375000D03*
%TO.P,A1,16,SPARE*%
%TO.N,unconnected-(A1-SPARE-Pad16)*%
X146685000Y-81915000D03*
%TO.P,A1,17,SDA*%
%TO.N,Net-(A1-SDA)*%
X167005000Y-81915000D03*
%TO.P,A1,18,SCL*%
%TO.N,Net-(A1-SCL)*%
X167005000Y-79375000D03*
%TO.P,A1,19,D0*%
%TO.N,Net-(A1-D0)*%
X167005000Y-76835000D03*
%TO.P,A1,20,D1*%
%TO.N,Net-(A1-D1)*%
X167005000Y-74295000D03*
%TO.P,A1,21,D2*%
%TO.N,Net-(A1-D2)*%
X167005000Y-71755000D03*
%TO.P,A1,22,D3*%
%TO.N,unconnected-(A1-D3-Pad22)*%
X167005000Y-69215000D03*
%TO.P,A1,23,D4*%
%TO.N,unconnected-(A1-D4-Pad23)*%
X167005000Y-66675000D03*
%TO.P,A1,24,D5*%
%TO.N,unconnected-(A1-D5-Pad24)*%
X167005000Y-64135000D03*
%TO.P,A1,25,D6*%
%TO.N,unconnected-(A1-D6-Pad25)*%
X167005000Y-61595000D03*
%TO.P,A1,26,USB*%
%TO.N,unconnected-(A1-USB-Pad26)*%
X167005000Y-59055000D03*
%TO.P,A1,27,EN*%
%TO.N,Net-(A1-EN)*%
X167005000Y-56515000D03*
%TO.P,A1,28,VBAT*%
%TO.N,unconnected-(A1-VBAT-Pad28)*%
X167005000Y-53975000D03*
%TD*%
D12*
%TO.P,J16,*%
%TO.N,*%
X123378000Y-94996000D03*
X134808000Y-94996000D03*
D13*
%TO.P,J16,1*%
%TO.N,Net-(A1-SCL)*%
X124648000Y-88646000D03*
D14*
%TO.P,J16,2*%
X125918000Y-86106000D03*
%TO.P,J16,3*%
X127188000Y-88646000D03*
%TO.P,J16,4*%
X128458000Y-86106000D03*
%TO.P,J16,5*%
%TO.N,Net-(A1-TX)*%
X129728000Y-88646000D03*
%TO.P,J16,6*%
%TO.N,Net-(A1-A2)*%
X130998000Y-86106000D03*
%TO.P,J16,7*%
%TO.N,Net-(A1-SDA)*%
X132268000Y-88646000D03*
%TO.P,J16,8*%
%TO.N,Net-(A1-A3)*%
X133538000Y-86106000D03*
%TD*%
D12*
%TO.P,J6,*%
%TO.N,*%
X105603000Y-54610000D03*
X117033000Y-54610000D03*
D13*
%TO.P,J6,1*%
%TO.N,Net-(A1-A4)*%
X106873000Y-48260000D03*
D14*
%TO.P,J6,2*%
X108143000Y-45720000D03*
%TO.P,J6,3*%
X109413000Y-48260000D03*
%TO.P,J6,4*%
X110683000Y-45720000D03*
%TO.P,J6,5*%
%TO.N,Net-(A1-TX)*%
X111953000Y-48260000D03*
%TO.P,J6,6*%
%TO.N,Net-(A1-A2)*%
X113223000Y-45720000D03*
%TO.P,J6,7*%
%TO.N,Net-(A1-SDA)*%
X114493000Y-48260000D03*
%TO.P,J6,8*%
%TO.N,Net-(A1-A3)*%
X115763000Y-45720000D03*
%TD*%
D12*
%TO.P,J11,*%
%TO.N,*%
X87386000Y-76446000D03*
X98816000Y-76446000D03*
D13*
%TO.P,J11,1*%
%TO.N,Net-(A1-D2)*%
X88656000Y-70096000D03*
D14*
%TO.P,J11,2*%
X89926000Y-67556000D03*
%TO.P,J11,3*%
X91196000Y-70096000D03*
%TO.P,J11,4*%
X92466000Y-67556000D03*
%TO.P,J11,5*%
%TO.N,Net-(A1-MISO)*%
X93736000Y-70096000D03*
%TO.P,J11,6*%
%TO.N,Net-(A1-A0)*%
X95006000Y-67556000D03*
%TO.P,J11,7*%
%TO.N,Net-(A1-RX)*%
X96276000Y-70096000D03*
%TO.P,J11,8*%
%TO.N,Net-(A1-A1)*%
X97546000Y-67556000D03*
%TD*%
D12*
%TO.P,J7,*%
%TO.N,*%
X87386000Y-54610000D03*
X98816000Y-54610000D03*
D13*
%TO.P,J7,1*%
%TO.N,Net-(A1-SCK)*%
X88656000Y-48260000D03*
D14*
%TO.P,J7,2*%
X89926000Y-45720000D03*
%TO.P,J7,3*%
X91196000Y-48260000D03*
%TO.P,J7,4*%
X92466000Y-45720000D03*
%TO.P,J7,5*%
%TO.N,Net-(A1-MISO)*%
X93736000Y-48260000D03*
%TO.P,J7,6*%
%TO.N,Net-(A1-A0)*%
X95006000Y-45720000D03*
%TO.P,J7,7*%
%TO.N,Net-(A1-RX)*%
X96276000Y-48260000D03*
%TO.P,J7,8*%
%TO.N,Net-(A1-A1)*%
X97546000Y-45720000D03*
%TD*%
D12*
%TO.P,J2,*%
%TO.N,*%
X105603000Y-36060000D03*
X117033000Y-36060000D03*
D13*
%TO.P,J2,1*%
%TO.N,Net-(A1-A5)*%
X106873000Y-29710000D03*
D14*
%TO.P,J2,2*%
X108143000Y-27170000D03*
%TO.P,J2,3*%
X109413000Y-29710000D03*
%TO.P,J2,4*%
X110683000Y-27170000D03*
%TO.P,J2,5*%
%TO.N,Net-(A1-TX)*%
X111953000Y-29710000D03*
%TO.P,J2,6*%
%TO.N,Net-(A1-A2)*%
X113223000Y-27170000D03*
%TO.P,J2,7*%
%TO.N,Net-(A1-SDA)*%
X114493000Y-29710000D03*
%TO.P,J2,8*%
%TO.N,Net-(A1-A3)*%
X115763000Y-27170000D03*
%TD*%
D12*
%TO.P,J5,*%
%TO.N,*%
X69611000Y-54610000D03*
X81041000Y-54610000D03*
D13*
%TO.P,J5,1*%
%TO.N,Net-(A1-SCK)*%
X70881000Y-48260000D03*
D14*
%TO.P,J5,2*%
X72151000Y-45720000D03*
%TO.P,J5,3*%
X73421000Y-48260000D03*
%TO.P,J5,4*%
X74691000Y-45720000D03*
%TO.P,J5,5*%
%TO.N,Net-(A1-MISO)*%
X75961000Y-48260000D03*
%TO.P,J5,6*%
%TO.N,Net-(A1-A0)*%
X77231000Y-45720000D03*
%TO.P,J5,7*%
%TO.N,Net-(A1-RX)*%
X78501000Y-48260000D03*
%TO.P,J5,8*%
%TO.N,Net-(A1-A1)*%
X79771000Y-45720000D03*
%TD*%
D12*
%TO.P,J9,*%
%TO.N,*%
X69611000Y-76446000D03*
X81041000Y-76446000D03*
D13*
%TO.P,J9,1*%
%TO.N,Net-(A1-D2)*%
X70881000Y-70096000D03*
D14*
%TO.P,J9,2*%
X72151000Y-67556000D03*
%TO.P,J9,3*%
X73421000Y-70096000D03*
%TO.P,J9,4*%
X74691000Y-67556000D03*
%TO.P,J9,5*%
%TO.N,Net-(A1-MISO)*%
X75961000Y-70096000D03*
%TO.P,J9,6*%
%TO.N,Net-(A1-A0)*%
X77231000Y-67556000D03*
%TO.P,J9,7*%
%TO.N,Net-(A1-RX)*%
X78501000Y-70096000D03*
%TO.P,J9,8*%
%TO.N,Net-(A1-A1)*%
X79771000Y-67556000D03*
%TD*%
D12*
%TO.P,J10,*%
%TO.N,*%
X105603000Y-76446000D03*
X117033000Y-76446000D03*
D13*
%TO.P,J10,1*%
%TO.N,Net-(A1-D0)*%
X106873000Y-70096000D03*
D14*
%TO.P,J10,2*%
X108143000Y-67556000D03*
%TO.P,J10,3*%
X109413000Y-70096000D03*
%TO.P,J10,4*%
X110683000Y-67556000D03*
%TO.P,J10,5*%
%TO.N,Net-(A1-TX)*%
X111953000Y-70096000D03*
%TO.P,J10,6*%
%TO.N,Net-(A1-A2)*%
X113223000Y-67556000D03*
%TO.P,J10,7*%
%TO.N,Net-(A1-SDA)*%
X114493000Y-70096000D03*
%TO.P,J10,8*%
%TO.N,Net-(A1-A3)*%
X115763000Y-67556000D03*
%TD*%
D12*
%TO.P,J12,*%
%TO.N,*%
X123378000Y-76446000D03*
X134808000Y-76446000D03*
D13*
%TO.P,J12,1*%
%TO.N,Net-(A1-D0)*%
X124648000Y-70096000D03*
D14*
%TO.P,J12,2*%
X125918000Y-67556000D03*
%TO.P,J12,3*%
X127188000Y-70096000D03*
%TO.P,J12,4*%
X128458000Y-67556000D03*
%TO.P,J12,5*%
%TO.N,Net-(A1-TX)*%
X129728000Y-70096000D03*
%TO.P,J12,6*%
%TO.N,Net-(A1-A2)*%
X130998000Y-67556000D03*
%TO.P,J12,7*%
%TO.N,Net-(A1-SDA)*%
X132268000Y-70096000D03*
%TO.P,J12,8*%
%TO.N,Net-(A1-A3)*%
X133538000Y-67556000D03*
%TD*%
D12*
%TO.P,J8,*%
%TO.N,*%
X123378000Y-54610000D03*
X134808000Y-54610000D03*
D13*
%TO.P,J8,1*%
%TO.N,Net-(A1-A4)*%
X124648000Y-48260000D03*
D14*
%TO.P,J8,2*%
X125918000Y-45720000D03*
%TO.P,J8,3*%
X127188000Y-48260000D03*
%TO.P,J8,4*%
X128458000Y-45720000D03*
%TO.P,J8,5*%
%TO.N,Net-(A1-TX)*%
X129728000Y-48260000D03*
%TO.P,J8,6*%
%TO.N,Net-(A1-A2)*%
X130998000Y-45720000D03*
%TO.P,J8,7*%
%TO.N,Net-(A1-SDA)*%
X132268000Y-48260000D03*
%TO.P,J8,8*%
%TO.N,Net-(A1-A3)*%
X133538000Y-45720000D03*
%TD*%
D12*
%TO.P,J1,*%
%TO.N,*%
X69611000Y-36060000D03*
X81041000Y-36060000D03*
D13*
%TO.P,J1,1*%
%TO.N,Net-(A1-MOSI)*%
X70881000Y-29710000D03*
D14*
%TO.P,J1,2*%
X72151000Y-27170000D03*
%TO.P,J1,3*%
X73421000Y-29710000D03*
%TO.P,J1,4*%
X74691000Y-27170000D03*
%TO.P,J1,5*%
%TO.N,Net-(A1-MISO)*%
X75961000Y-29710000D03*
%TO.P,J1,6*%
%TO.N,Net-(A1-A0)*%
X77231000Y-27170000D03*
%TO.P,J1,7*%
%TO.N,Net-(A1-RX)*%
X78501000Y-29710000D03*
%TO.P,J1,8*%
%TO.N,Net-(A1-A1)*%
X79771000Y-27170000D03*
%TD*%
D12*
%TO.P,J15,*%
%TO.N,*%
X87386000Y-94996000D03*
X98816000Y-94996000D03*
D13*
%TO.P,J15,1*%
%TO.N,Net-(A1-D1)*%
X88656000Y-88646000D03*
D14*
%TO.P,J15,2*%
X89926000Y-86106000D03*
%TO.P,J15,3*%
X91196000Y-88646000D03*
%TO.P,J15,4*%
X92466000Y-86106000D03*
%TO.P,J15,5*%
%TO.N,Net-(A1-MISO)*%
X93736000Y-88646000D03*
%TO.P,J15,6*%
%TO.N,Net-(A1-A0)*%
X95006000Y-86106000D03*
%TO.P,J15,7*%
%TO.N,Net-(A1-RX)*%
X96276000Y-88646000D03*
%TO.P,J15,8*%
%TO.N,Net-(A1-A1)*%
X97546000Y-86106000D03*
%TD*%
D12*
%TO.P,J13,*%
%TO.N,*%
X69611000Y-94996000D03*
X81041000Y-94996000D03*
D13*
%TO.P,J13,1*%
%TO.N,Net-(A1-D1)*%
X70881000Y-88646000D03*
D14*
%TO.P,J13,2*%
X72151000Y-86106000D03*
%TO.P,J13,3*%
X73421000Y-88646000D03*
%TO.P,J13,4*%
X74691000Y-86106000D03*
%TO.P,J13,5*%
%TO.N,Net-(A1-MISO)*%
X75961000Y-88646000D03*
%TO.P,J13,6*%
%TO.N,Net-(A1-A0)*%
X77231000Y-86106000D03*
%TO.P,J13,7*%
%TO.N,Net-(A1-RX)*%
X78501000Y-88646000D03*
%TO.P,J13,8*%
%TO.N,Net-(A1-A1)*%
X79771000Y-86106000D03*
%TD*%
D12*
%TO.P,J4,*%
%TO.N,*%
X123378000Y-36060000D03*
X134808000Y-36060000D03*
D13*
%TO.P,J4,1*%
%TO.N,Net-(A1-A5)*%
X124648000Y-29710000D03*
D14*
%TO.P,J4,2*%
X125918000Y-27170000D03*
%TO.P,J4,3*%
X127188000Y-29710000D03*
%TO.P,J4,4*%
X128458000Y-27170000D03*
%TO.P,J4,5*%
%TO.N,Net-(A1-TX)*%
X129728000Y-29710000D03*
%TO.P,J4,6*%
%TO.N,Net-(A1-A2)*%
X130998000Y-27170000D03*
%TO.P,J4,7*%
%TO.N,Net-(A1-SDA)*%
X132268000Y-29710000D03*
%TO.P,J4,8*%
%TO.N,Net-(A1-A3)*%
X133538000Y-27170000D03*
%TD*%
D17*
%TO.N,Net-(A1-A0)*%
X77231000Y-67556000D02*
X77231000Y-86106000D01*
X95006000Y-27170000D02*
X95006000Y-45720000D01*
X78306000Y-26095000D02*
X77231000Y-27170000D01*
X77231000Y-45720000D02*
X77231000Y-71866000D01*
X95006000Y-27170000D02*
X93931000Y-26095000D01*
X95006000Y-86106000D02*
X95006000Y-67556000D01*
X77231000Y-27170000D02*
X77231000Y-45720000D01*
X95006000Y-45720000D02*
X95006000Y-71866000D01*
X93931000Y-26095000D02*
X78306000Y-26095000D01*
%TO.N,Net-(A1-A1)*%
X97546000Y-27170000D02*
X100966000Y-30590000D01*
X79771000Y-45720000D02*
X83191000Y-49140000D01*
X100966000Y-70976000D02*
X100966000Y-82686000D01*
X97546000Y-45720000D02*
X100966000Y-49140000D01*
X83191000Y-70976000D02*
X83191000Y-82686000D01*
X83191000Y-82686000D02*
X79771000Y-86106000D01*
X79771000Y-27170000D02*
X83191000Y-30590000D01*
X83191000Y-30590000D02*
X83191000Y-42300000D01*
X100966000Y-42300000D02*
X97546000Y-45720000D01*
X79771000Y-67556000D02*
X83191000Y-70976000D01*
X97546000Y-67556000D02*
X100966000Y-70976000D01*
X83191000Y-64136000D02*
X79771000Y-67556000D01*
X100966000Y-64136000D02*
X97546000Y-67556000D01*
X100966000Y-82686000D02*
X97546000Y-86106000D01*
X83191000Y-49140000D02*
X83191000Y-68446000D01*
X100966000Y-30590000D02*
X100966000Y-42300000D01*
X83191000Y-42300000D02*
X79771000Y-45720000D01*
X100966000Y-49140000D02*
X100966000Y-68446000D01*
%TO.N,Net-(A1-A2)*%
X130998000Y-67556000D02*
X130998000Y-86106000D01*
X113223000Y-67556000D02*
X113223000Y-86106000D01*
X130998000Y-71866000D02*
X130998000Y-45720000D01*
X113223000Y-71866000D02*
X113223000Y-45720000D01*
X130998000Y-27170000D02*
X129923000Y-26095000D01*
X114298000Y-26095000D02*
X113223000Y-27170000D01*
X113223000Y-27170000D02*
X113223000Y-45720000D01*
X129923000Y-26095000D02*
X114298000Y-26095000D01*
X130998000Y-27170000D02*
X130998000Y-45720000D01*
%TO.N,Net-(A1-A3)*%
X136958000Y-30590000D02*
X133538000Y-27170000D01*
X119568000Y-71361000D02*
X119568000Y-82301000D01*
X133538000Y-45720000D02*
X136958000Y-49140000D01*
X136958000Y-64136000D02*
X133538000Y-67556000D01*
X136958000Y-70976000D02*
X136958000Y-82686000D01*
X133538000Y-45720000D02*
X136958000Y-42300000D01*
X136958000Y-82686000D02*
X133538000Y-86106000D01*
X119183000Y-30590000D02*
X119183000Y-42300000D01*
X119568000Y-82301000D02*
X115763000Y-86106000D01*
X119183000Y-49140000D02*
X119183000Y-68446000D01*
X136958000Y-49140000D02*
X136958000Y-68446000D01*
X115763000Y-67556000D02*
X119568000Y-71361000D01*
X133538000Y-67556000D02*
X136958000Y-70976000D01*
X119183000Y-64136000D02*
X115763000Y-67556000D01*
X136958000Y-42300000D02*
X136958000Y-30590000D01*
X119183000Y-42300000D02*
X115763000Y-45720000D01*
X115763000Y-45720000D02*
X119183000Y-49140000D01*
X115763000Y-27170000D02*
X119183000Y-30590000D01*
%TO.N,Net-(A1-A4)*%
X109413000Y-48260000D02*
X106873000Y-48260000D01*
X109413000Y-48260000D02*
X109413000Y-46990000D01*
X108143000Y-45720000D02*
X110683000Y-45720000D01*
X124648000Y-46990000D02*
X125918000Y-45720000D01*
X124648000Y-48260000D02*
X124648000Y-46990000D01*
X124648000Y-48260000D02*
X127188000Y-48260000D01*
X106873000Y-48260000D02*
X106873000Y-46990000D01*
X128458000Y-45720000D02*
X125918000Y-45720000D01*
X127188000Y-46990000D02*
X128458000Y-45720000D01*
X109413000Y-46990000D02*
X110683000Y-45720000D01*
X127188000Y-46990000D02*
X125918000Y-45720000D01*
X106873000Y-46990000D02*
X108143000Y-45720000D01*
X109413000Y-46990000D02*
X108143000Y-45720000D01*
X127188000Y-48260000D02*
X127188000Y-46990000D01*
%TO.N,Net-(A1-A5)*%
X109413000Y-28440000D02*
X110683000Y-27170000D01*
X106873000Y-29710000D02*
X109413000Y-29710000D01*
X127188000Y-29710000D02*
X127188000Y-28440000D01*
X124648000Y-28440000D02*
X125918000Y-27170000D01*
X109413000Y-28440000D02*
X108143000Y-27170000D01*
X108143000Y-27170000D02*
X110683000Y-27170000D01*
X125918000Y-27170000D02*
X128458000Y-27170000D01*
X106873000Y-28440000D02*
X108143000Y-27170000D01*
X124648000Y-29710000D02*
X124648000Y-28440000D01*
X127188000Y-29710000D02*
X124648000Y-29710000D01*
X127188000Y-28440000D02*
X125918000Y-27170000D01*
X127188000Y-28440000D02*
X128458000Y-27170000D01*
X109413000Y-29710000D02*
X109413000Y-28440000D01*
X106873000Y-29710000D02*
X106873000Y-28440000D01*
%TO.N,Net-(A1-SCK)*%
X73421000Y-46990000D02*
X72151000Y-45720000D01*
X89926000Y-45720000D02*
X92466000Y-45720000D01*
X70881000Y-48260000D02*
X70881000Y-46990000D01*
X73421000Y-48260000D02*
X73421000Y-46990000D01*
X74691000Y-45720000D02*
X72151000Y-45720000D01*
X73421000Y-48260000D02*
X70881000Y-48260000D01*
X88656000Y-46990000D02*
X88656000Y-48260000D01*
X91196000Y-46990000D02*
X89926000Y-45720000D01*
X91196000Y-48260000D02*
X88656000Y-48260000D01*
X73421000Y-46990000D02*
X74691000Y-45720000D01*
X89926000Y-45720000D02*
X88656000Y-46990000D01*
X70881000Y-46990000D02*
X72151000Y-45720000D01*
X91196000Y-46990000D02*
X92466000Y-45720000D01*
X91196000Y-48260000D02*
X91196000Y-46990000D01*
%TO.N,Net-(A1-MOSI)*%
X88656000Y-29710000D02*
X88656000Y-28440000D01*
X88656000Y-29710000D02*
X91196000Y-29710000D01*
X70881000Y-28440000D02*
X72151000Y-27170000D01*
X92466000Y-27170000D02*
X89926000Y-27170000D01*
X88656000Y-28440000D02*
X89926000Y-27170000D01*
X73421000Y-28440000D02*
X72151000Y-27170000D01*
X73421000Y-29710000D02*
X73421000Y-28440000D01*
X73421000Y-28440000D02*
X74691000Y-27170000D01*
X91196000Y-28440000D02*
X92466000Y-27170000D01*
X73421000Y-29710000D02*
X70881000Y-29710000D01*
X91196000Y-29710000D02*
X91196000Y-28440000D01*
X72151000Y-27170000D02*
X74691000Y-27170000D01*
X91196000Y-28440000D02*
X89926000Y-27170000D01*
X70881000Y-29710000D02*
X70881000Y-28440000D01*
%TO.N,Net-(A1-MISO)*%
X75961000Y-70096000D02*
X75961000Y-88646000D01*
X92661000Y-89721000D02*
X77036000Y-89721000D01*
X93736000Y-70096000D02*
X93736000Y-88646000D01*
X75961000Y-48260000D02*
X75961000Y-74406000D01*
X93736000Y-29710000D02*
X93736000Y-48260000D01*
X77036000Y-89721000D02*
X75961000Y-88646000D01*
X93736000Y-88646000D02*
X92661000Y-89721000D01*
X93736000Y-74406000D02*
X93736000Y-48260000D01*
X75961000Y-29710000D02*
X75961000Y-48260000D01*
%TO.N,Net-(A1-RX)*%
X96276000Y-70096000D02*
X96276000Y-88646000D01*
X78501000Y-29710000D02*
X78501000Y-48260000D01*
X96276000Y-29710000D02*
X96276000Y-48260000D01*
X96276000Y-48260000D02*
X96276000Y-74406000D01*
X78501000Y-70096000D02*
X78501000Y-88646000D01*
X78501000Y-48260000D02*
X78501000Y-74406000D01*
%TO.N,Net-(A1-TX)*%
X113028000Y-89721000D02*
X128653000Y-89721000D01*
X128653000Y-89721000D02*
X129728000Y-88646000D01*
X111953000Y-48260000D02*
X111953000Y-74406000D01*
X111953000Y-88646000D02*
X113028000Y-89721000D01*
X111953000Y-48260000D02*
X111953000Y-29710000D01*
X129728000Y-48260000D02*
X129728000Y-74406000D01*
X111953000Y-88646000D02*
X111953000Y-70096000D01*
X129728000Y-88646000D02*
X129728000Y-70096000D01*
X129728000Y-48260000D02*
X129728000Y-29710000D01*
%TO.N,Net-(A1-SDA)*%
X132268000Y-29710000D02*
X132268000Y-48260000D01*
X114493000Y-88646000D02*
X114493000Y-70096000D01*
X132268000Y-74406000D02*
X132268000Y-48260000D01*
X132268000Y-88646000D02*
X132268000Y-70096000D01*
X114493000Y-48260000D02*
X114493000Y-74406000D01*
X114493000Y-48260000D02*
X114493000Y-29710000D01*
%TO.N,Net-(A1-SCL)*%
X109413000Y-87376000D02*
X108143000Y-86106000D01*
X106873000Y-88646000D02*
X106873000Y-87376000D01*
X109413000Y-88646000D02*
X109413000Y-87376000D01*
X127188000Y-88646000D02*
X127188000Y-87376000D01*
X106873000Y-87376000D02*
X108143000Y-86106000D01*
X127188000Y-87376000D02*
X128458000Y-86106000D01*
X109413000Y-87376000D02*
X110683000Y-86106000D01*
X124648000Y-88646000D02*
X127188000Y-88646000D01*
X110683000Y-86106000D02*
X108143000Y-86106000D01*
X127188000Y-87376000D02*
X125918000Y-86106000D01*
X106873000Y-88646000D02*
X109413000Y-88646000D01*
%TO.N,Net-(A1-D0)*%
X109413000Y-68826000D02*
X108143000Y-67556000D01*
X127188000Y-68826000D02*
X128458000Y-67556000D01*
X109413000Y-68826000D02*
X110683000Y-67556000D01*
X124648000Y-70096000D02*
X124648000Y-68826000D01*
X127188000Y-68826000D02*
X125918000Y-67556000D01*
X127188000Y-70096000D02*
X127188000Y-68826000D01*
X106873000Y-68826000D02*
X108143000Y-67556000D01*
X124648000Y-68826000D02*
X125918000Y-67556000D01*
X106873000Y-70096000D02*
X106873000Y-68826000D01*
X128458000Y-67556000D02*
X125918000Y-67556000D01*
X124648000Y-70096000D02*
X127188000Y-70096000D01*
X109413000Y-70096000D02*
X109413000Y-68826000D01*
X109413000Y-70096000D02*
X106873000Y-70096000D01*
%TO.N,Net-(A1-D1)*%
X91196000Y-88646000D02*
X88656000Y-88646000D01*
X73421000Y-87376000D02*
X74691000Y-86106000D01*
X91196000Y-87376000D02*
X91196000Y-88646000D01*
X88656000Y-87376000D02*
X89926000Y-86106000D01*
X88656000Y-88646000D02*
X88656000Y-87376000D01*
X70881000Y-88646000D02*
X70881000Y-87376000D01*
X91196000Y-87376000D02*
X92466000Y-86106000D01*
X92466000Y-86106000D02*
X89926000Y-86106000D01*
X72151000Y-86106000D02*
X73421000Y-87376000D01*
X74691000Y-86106000D02*
X72151000Y-86106000D01*
X70881000Y-87376000D02*
X72151000Y-86106000D01*
X89926000Y-86106000D02*
X91196000Y-87376000D01*
X73421000Y-88646000D02*
X70881000Y-88646000D01*
X73421000Y-87376000D02*
X73421000Y-88646000D01*
%TO.N,Net-(A1-D2)*%
X91196000Y-70096000D02*
X91196000Y-68826000D01*
X70881000Y-68826000D02*
X72151000Y-67556000D01*
X88901000Y-68581000D02*
X89926000Y-67556000D01*
X89926000Y-67556000D02*
X92466000Y-67556000D01*
X73421000Y-68826000D02*
X72151000Y-67556000D01*
X74691000Y-67556000D02*
X72151000Y-67556000D01*
X73421000Y-68826000D02*
X74691000Y-67556000D01*
X70881000Y-70096000D02*
X70881000Y-68826000D01*
X91196000Y-70096000D02*
X88656000Y-70096000D01*
X91196000Y-68826000D02*
X89926000Y-67556000D01*
X73421000Y-70096000D02*
X73421000Y-68826000D01*
X91196000Y-68826000D02*
X92466000Y-67556000D01*
X73421000Y-70096000D02*
X70881000Y-70096000D01*
X88656000Y-68826000D02*
X88901000Y-68581000D01*
X88656000Y-70096000D02*
X88656000Y-68826000D01*
%TD*%
M02*
